<?xml version="1.0" encoding="utf-8"?>
<!-- Generator: Adobe Illustrator 22.1.0, SVG Export Plug-In . SVG Version: 6.00 Build 0)  -->
<svg version="1.1" id="OBJECTS" xmlns="http://www.w3.org/2000/svg" xmlns:xlink="http://www.w3.org/1999/xlink" x="0px" y="0px"
	 viewBox="0 0 396.7 256" style="enable-background:new 0 0 396.7 256;" xml:space="preserve">
<style type="text/css">
	.st0{fill:#F2F3F4;}
	.st1{fill:#001C2D;}
	.st2{fill:#B3B3B3;}
	.st3{fill:#6F6F6F;}
	.st4{fill:#FFFFFF;}
	.st5{fill:#0A0A1F;}
	.st6{fill:#DB495E;}
	.st7{fill:#F6961D;}
</style>
<g>
	<g>
		<g>
			<path class="st0" d="M213.4,46.2C174.3,58.7,50.3-2.9,60,81.2c1.5,12.5,9.6,30.2,2.8,41.9c-4.9,8.8-14,13.9-22.7,17.3
				c-22.8,9.3-31.3,26.7-25.5,51.5c15.5,66.9,99.6,51.1,143.7,31.2c31.4-14.8,68.5-17.3,101-4.8c25.5,10.2,41.4,31.5,71.3,25.3
				c26.5-5.3,30.5-30.4,22.8-53.7c-4.4-14.4-7.6-20.5,1.2-34.4c7.4-13.8,20.3-24.3,21.3-40.5c0.2-17.5-7.8-35.2-23.4-41.9
				c-12.8-5.4-24.3-3.2-37-6.6c-28.1-7.9-46.1-51.5-81-36.5c-8.7,4.1-13.6,13.5-23,16.3"/>
		</g>
		<g>
			<g>
				<g>
					<path class="st0" d="M199.2,40.2c3.5,0,3.5-5.5,0-5.5S195.7,40.2,199.2,40.2L199.2,40.2z"/>
				</g>
			</g>
			<g>
				<g>
					<path class="st0" d="M36.3,124.7c7.1,0,7.1-11,0-11S29.2,124.7,36.3,124.7L36.3,124.7z"/>
				</g>
			</g>
			<g>
				<g>
					<path class="st0" d="M367,168.6c7.1,0,7.1-11,0-11S359.9,168.6,367,168.6L367,168.6z"/>
				</g>
			</g>
			<g>
				<g>
					<path class="st0" d="M180.7,37.4c7.1,0,7.1-11,0-11C173.6,26.4,173.6,37.4,180.7,37.4L180.7,37.4z"/>
				</g>
			</g>
			<g>
				<g>
					<path class="st0" d="M378,151.1c9.2,0,9.2-14.3,0-14.3S368.8,151.1,378,151.1L378,151.1z"/>
				</g>
			</g>
			<g>
				<g>
					<path class="st0" d="M17.7,142.9c9.2,0,9.2-14.3,0-14.3C8.5,128.6,8.5,142.9,17.7,142.9L17.7,142.9z"/>
				</g>
			</g>
			<g>
				<g>
					<path class="st0" d="M323,57c9.2,0,9.2-14.3,0-14.3S313.8,57,323,57L323,57z"/>
				</g>
			</g>
			<g>
				<g>
					<path class="st0" d="M196.5,28.5c10.6,0,10.6-16.5,0-16.5S185.9,28.5,196.5,28.5L196.5,28.5z"/>
				</g>
			</g>
			<g>
				<g>
					<path class="st0" d="M383.9,164.1c5.3,0,5.3-8.2,0-8.2C378.6,155.8,378.6,164.1,383.9,164.1L383.9,164.1z"/>
				</g>
			</g>
			<g>
				<g>
					<path class="st0" d="M15.8,119.9c5.3,0,5.3-8.2,0-8.2C10.5,111.7,10.5,119.9,15.8,119.9L15.8,119.9z"/>
				</g>
			</g>
			<g>
				<g>
					<path class="st0" d="M340.2,64.9c5.3,0,5.3-8.3,0-8.3C334.9,56.7,334.9,64.9,340.2,64.9L340.2,64.9z"/>
				</g>
			</g>
			<g>
				<g>
					<path class="st0" d="M338.8,49.8c3.5,0,3.5-5.5,0-5.5S335.3,49.8,338.8,49.8L338.8,49.8z"/>
				</g>
			</g>
			<g>
				<g>
					<path class="st0" d="M60.2,40.3c7.1,0,7.1-11,0-11C53.2,29.3,53.1,40.3,60.2,40.3L60.2,40.3z"/>
				</g>
			</g>
			<g>
				<g>
					<path class="st0" d="M373.2,229.9c7.1,0,7.1-11,0-11S366.1,229.9,373.2,229.9L373.2,229.9z"/>
				</g>
			</g>
			<g>
				<g>
					<path class="st0" d="M15.7,234.7c7.1,0,7.1-11,0-11S8.6,234.7,15.7,234.7L15.7,234.7z"/>
				</g>
			</g>
			<g>
				<g>
					<path class="st0" d="M76.7,32.1c3.5,0,3.5-5.5,0-5.5C73.2,26.6,73.2,32.1,76.7,32.1L76.7,32.1z"/>
				</g>
			</g>
			<g>
				<g>
					<path class="st0" d="M373.9,207.9c3.5,0,3.5-5.5,0-5.5C370.3,202.4,370.3,207.9,373.9,207.9L373.9,207.9z"/>
				</g>
			</g>
			<g>
				<g>
					<path class="st0" d="M32.2,241.6c3.5,0,3.5-5.5,0-5.5C28.6,236.1,28.6,241.6,32.2,241.6L32.2,241.6z"/>
				</g>
			</g>
		</g>
	</g>
	<g>
		<g>
			<g>
				<path class="st1" d="M110.7,149c-4.4,1.5-6.5,1.1-8.4-3c-1.3-2.7-2.3-5.5-4-7.9c-1.7-2.3-3.9-4.8-6.8-5.6
					c-2.6-0.7-5.3,0.2-7.9,0.4c-6.4,0.5-14.3-1-15.3-8.2c-0.8-5.1-0.7-9.8-2.9-14.7l0,0c1.8-1.1,3.3-2.4,4.7-4.1
					c0.5-0.7,0.1-1.8-0.6-2.3c-0.8-0.5-1.7-0.1-2.3,0.6c-0.7,0.9-1.4,1.6-2.2,2.2c-0.2-2.2-0.4-4.4-0.4-6.6c0-2.1-3.3-2.1-3.3,0
					c0,1.7,0.1,3.4,0.3,5.2c-1.3-1.3-2.4-2.7-3.5-4.1c-1.3-1.7-3.6,0.7-2.3,2.3c1.3,1.7,2.7,3.3,4.2,4.8c-1.7-0.1-3.2-0.8-4.6-2.2
					c-1.5-1.5-3.9,0.9-2.3,2.3c2.5,2.3,5.4,3.4,8.6,3.1c0,0.2,0.1,0.4,0.2,0.6c2.5,5.4,1.3,11.4,3.3,16.8c2.2,5.9,8.6,7.5,14.2,8.1
					c3.5,0.4,8-1.3,11.3-0.4c4.1,1.2,6.3,6.8,7.8,10.4c2.8,6.5,6.7,8.5,13.6,6.1C114.3,152.1,113.2,148.1,110.7,149z"/>
				<path class="st1" d="M333.1,115c-1.2,1.9-3,3.2-5,4.2c1.9-1.9,3.2-4.1,4.1-6.8c0.7-2-2.5-2.9-3.2-0.9c-0.5,1.6-1.3,2.9-2.3,4.1
					c0-1.6,0-3.2,0-4.8c0-2.1-3.3-2.1-3.3,0c0,2,0,4,0,6c-0.7-0.8-1.3-1.7-1.7-2.6c-0.3-0.8-1.1-1.4-2-1.2c-0.8,0.2-1.5,1.2-1.2,2
					c1.2,2.7,3,4.9,5.4,6.3c-1,7.3-6.9,7.5-13.4,8.9c-6,1.3-10.1,4.4-12.1,10.3c-0.8,2.2-0.8,5.1-3,6.2c-2.7,1.4-7.6,0.5-10.6,0.8
					c-7,0.8-9.6,4.7-9.7,11.6c-0.1,2.7,4.1,2.7,4.1,0c0.1-5.3,2-7.2,7.2-7.6c3.3-0.3,6.9,0,10.2-0.9c5.3-1.4,4.5-7.7,7-11.6
					c3.4-5.5,10.5-4.7,16-6.5c5.1-1.6,7.5-5.2,8.4-9.9c3.2-1.3,6-3.2,7.9-6.2C337.1,114.8,334.3,113.2,333.1,115z"/>
			</g>
			<g>
				<g>
					<g>
						<path class="st2" d="M299.1,219c0,2.9-21.6,3.7-23.9,3.7H113.5c-2.3,0-23.9-0.8-23.9-3.7l19.7-29.6c0-2.9,1.9-5.2,4.2-5.2
							h161.7c2.3,0,4.2,2.3,4.2,5.2L299.1,219z"/>
						<g>
							<g>
								<polygon class="st1" points="161,212.4 119.5,212.4 126.8,194.8 164.3,194.8 								"/>
								<polygon class="st1" points="227.5,212.4 269.1,212.4 261.8,194.8 224.2,194.8 								"/>
								<polygon class="st1" points="273.7,212.4 288.3,212.4 276.4,194.8 265.3,194.8 								"/>
								<polygon class="st1" points="114.9,212.4 100.2,212.4 112.2,194.8 123.3,194.8 								"/>
								<polygon class="st1" points="223.9,212.4 164.7,212.4 168,194.8 220.6,194.8 								"/>
							</g>
							<g>
								<rect x="103.9" y="198" class="st2" width="180.9" height="2.7"/>
								<rect x="101.9" y="204.6" class="st2" width="184.8" height="2.7"/>
							</g>
						</g>
					</g>
					<g>
						<path class="st1" d="M300.2,225.9c0,2.3-0.5,4.2-2.8,4.2H91.2c-2.3,0-2.8-1.9-2.8-4.2v-3.6c0-2.3,0.5-4.2,2.8-4.2h206.1
							c2.3,0,2.8,1.9,2.8,4.2v3.6H300.2z"/>
						<path class="st3" d="M232.9,224.2c0,1.2-1,2.2-2.2,2.2h-72.9c-1.2,0-2.2-1-2.2-2.2l0,0c0-1.2,1-2.2,2.2-2.2h72.9
							C231.9,222,232.9,222.9,232.9,224.2L232.9,224.2z"/>
					</g>
				</g>
				<g>
					<path class="st1" d="M281.5,185.5c0,2.3-1.9,4.2-4.2,4.2h-166c-2.3,0-4.2-1.9-4.2-4.2V77.2c0-2.3,1.9-4.2,4.2-4.2h165.9
						c2.3,0,4.2,1.9,4.2,4.2L281.5,185.5L281.5,185.5z"/>
					<g>
						<g>
							<path class="st4" d="M194.3,78.9c2.3,0,2.3-3.5,0-3.5S192,78.9,194.3,78.9L194.3,78.9z"/>
						</g>
					</g>
					<g>
						<path class="st4" d="M269.3,178.7c0,2-1.6,3.6-3.6,3.6H123c-2,0-3.6-1.6-3.6-3.6V85.6c0-2,1.6-3.6,3.6-3.6h142.7
							c2,0,3.6,1.6,3.6,3.6L269.3,178.7L269.3,178.7z"/>
						<g>
							<g>
								<path class="st5" d="M173.6,118.5c-0.6-0.6-1.7-0.6-2.3,0l-5.1,5.1l-5.1-5.1c-0.6-0.6-1.7-0.6-2.3,0s-0.6,1.7,0,2.3l5.1,5.1
									l-5.1,5.1c-0.6,0.6-0.6,1.7,0,2.3c0.3,0.3,0.7,0.5,1.2,0.5s0.8-0.2,1.2-0.5l5.1-5.1l5.1,5.1c0.3,0.3,0.7,0.5,1.2,0.5
									s0.8-0.2,1.2-0.5c0.6-0.6,0.6-1.7,0-2.3l-5.1-5.1l5.1-5.1C174.3,120.2,174.3,119.2,173.6,118.5z"/>
								<path class="st5" d="M224.7,125.9l5.1-5.1c0.6-0.6,0.6-1.7,0-2.3c-0.6-0.6-1.7-0.6-2.3,0l-5.1,5.1l-5.1-5.1
									c-0.6-0.6-1.7-0.6-2.3,0s-0.6,1.7,0,2.3l5.1,5.1L215,131c-0.6,0.6-0.6,1.7,0,2.3c0.3,0.3,0.7,0.5,1.2,0.5s0.8-0.2,1.2-0.5
									l5.1-5.1l5.1,5.1c0.3,0.3,0.7,0.5,1.2,0.5s0.8-0.2,1.2-0.5c0.6-0.6,0.6-1.7,0-2.3L224.7,125.9z"/>
							</g>
							<g>
								<g>
									<path class="st6" d="M223,147.2v12.3c0,2.4-2,4.4-4.4,4.4h-2.4c-2.4,0-4.4-2-4.4-4.4v-12.3"/>
								</g>
								<path class="st5" d="M231.6,148.5H157c-0.8,0-1.4-0.6-1.4-1.4s0.6-1.4,1.4-1.4h74.6c0.8,0,1.4,0.6,1.4,1.4
									S232.4,148.5,231.6,148.5z"/>
							</g>
							<g>
								<g>
									<g>
										<path class="st6" d="M144.8,145.3c7.1,0,7.1-11,0-11S137.7,145.3,144.8,145.3L144.8,145.3z"/>
									</g>
								</g>
								<g>
									<g>
										<path class="st6" d="M243.8,145.3c7.1,0,7.1-11,0-11S236.7,145.3,243.8,145.3L243.8,145.3z"/>
									</g>
								</g>
							</g>
						</g>
					</g>
				</g>
			</g>
		</g>
		<g>
			<path class="st7" d="M253.1,58.6c0,12.1,0,24.2,0,36.3c0,3.5,5.5,3.5,5.5,0c0-12.1,0-24.2,0-36.3
				C258.6,55.1,253.1,55.1,253.1,58.6L253.1,58.6z"/>
			<g>
				<g>
					<path class="st7" d="M255.9,108.9c5.3,0,5.3-8.2,0-8.2C250.6,100.7,250.6,108.9,255.9,108.9L255.9,108.9z"/>
				</g>
			</g>
		</g>
	</g>
</g>
</svg>
