<?xml version="1.0" encoding="utf-8"?>
<!-- Generator: Adobe Illustrator 22.1.0, SVG Export Plug-In . SVG Version: 6.00 Build 0)  -->
<svg version="1.1" id="Layer_1" xmlns="http://www.w3.org/2000/svg" xmlns:xlink="http://www.w3.org/1999/xlink" x="0px" y="0px"
	 viewBox="0 0 270 72" style="enable-background:new 0 0 270 72;" xml:space="preserve">
<style type="text/css">
	.st0{fill:#F7961D;}
	.st1{fill:#ED2290;}
	.st2{fill:#5C3F99;}
	.st3{fill:#1C132F;}
</style>
<g>
	<circle class="st0" cx="52.8" cy="28.5" r="19.2"/>
	<path class="st1" d="M53.9,36l-0.2-0.3L17,68.1c18.3-2.8,37-1.5,54.9,3.8l0,0L53.9,36z"/>
	<polygon class="st2" points="63.2,26.7 61,26.8 61.6,28.1 52,32.1 36,0 18,36 0,71.8 53.1,34.2 53.1,34.2 62,28.7 62.9,30.2 
		64.2,28.3 65.5,26.4 	"/>
</g>
<g>
	<g>
		<path class="st3" d="M97.3,9.1c1.5,0,2.8,0.2,3.9,0.5c1.1,0.4,2,0.8,2.7,1.5c0.7,0.6,1.2,1.4,1.6,2.3c0.4,0.9,0.5,1.8,0.5,2.9
			c0,1.1-0.2,2.1-0.5,3c-0.4,0.9-0.9,1.7-1.7,2.4c-0.7,0.6-1.7,1.2-2.8,1.5s-2.4,0.5-3.8,0.5h-3.1v8H90V9.1H97.3z M97.3,20.4
			c0.8,0,1.4-0.1,2-0.3c0.6-0.2,1.1-0.5,1.4-0.8c0.4-0.4,0.6-0.8,0.8-1.3c0.2-0.5,0.3-1.1,0.3-1.7s-0.1-1.2-0.3-1.7
			c-0.2-0.5-0.5-0.9-0.8-1.2c-0.4-0.4-0.8-0.6-1.4-0.8c-0.6-0.2-1.2-0.3-2-0.3h-3.1v8.1L97.3,20.4L97.3,20.4z"/>
		<path class="st3" d="M125.8,31.6h-3.2c-0.4,0-0.6-0.1-0.9-0.3c-0.2-0.2-0.4-0.4-0.5-0.7l-1.7-4.6h-9.3l-1.7,4.6
			c-0.1,0.2-0.2,0.5-0.5,0.6c-0.2,0.2-0.5,0.3-0.9,0.3h-3.3L112.7,9h4.3L125.8,31.6z M118.4,23.1l-2.8-7.5c-0.1-0.4-0.3-0.7-0.4-1.2
			c-0.1-0.5-0.3-0.9-0.4-1.5c-0.1,0.5-0.3,1-0.4,1.5c-0.1,0.5-0.3,0.9-0.4,1.2l-2.7,7.5L118.4,23.1L118.4,23.1z"/>
		<path class="st3" d="M144.6,31.6h-3.8c-0.7,0-1.2-0.3-1.6-0.8l-4.8-7.3c-0.2-0.3-0.4-0.5-0.6-0.6c-0.2-0.1-0.5-0.2-0.9-0.2h-1.8
			v8.8H127V9.1h6.9c1.5,0,2.8,0.2,3.9,0.5c1.1,0.3,2,0.8,2.7,1.4c0.7,0.6,1.2,1.2,1.5,2.1c0.3,0.8,0.5,1.7,0.5,2.7
			c0,0.8-0.1,1.5-0.4,2.2c-0.2,0.6-0.5,1.3-0.9,1.8c-0.4,0.5-0.9,1.1-1.6,1.5c-0.6,0.4-1.3,0.8-2.1,1c0.3,0.2,0.5,0.4,0.8,0.5
			c0.2,0.2,0.4,0.5,0.6,0.8L144.6,31.6z M133.7,19.8c0.8,0,1.5-0.1,2.1-0.3c0.6-0.2,1.1-0.5,1.5-0.8c0.4-0.4,0.6-0.8,0.8-1.2
			c0.2-0.5,0.3-1,0.3-1.6c0-1.1-0.4-2-1.1-2.7c-0.8-0.6-1.9-0.9-3.5-0.9h-2.7v7.5H133.7z"/>
		<path class="st3" d="M150,31.6h-4.2V9.1h4.2V31.6z"/>
		<path class="st3" d="M173.1,9.1L164,31.6h-3.8l-9.1-22.6h3.4c0.4,0,0.6,0.1,0.9,0.3c0.2,0.2,0.4,0.4,0.5,0.7l5.3,13.8
			c0.2,0.5,0.4,0.9,0.5,1.5c0.2,0.5,0.3,1.1,0.5,1.7c0.1-0.6,0.2-1.1,0.4-1.7c0.1-0.5,0.3-1,0.5-1.5l5.3-13.8
			c0.1-0.2,0.2-0.5,0.5-0.6c0.2-0.2,0.5-0.3,0.9-0.3L173.1,9.1L173.1,9.1z"/>
		<path class="st3" d="M191.8,31.6h-3.2c-0.4,0-0.6-0.1-0.9-0.3c-0.2-0.2-0.4-0.4-0.5-0.7l-1.7-4.6h-9.4l-1.7,4.6
			c-0.1,0.2-0.2,0.5-0.5,0.6c-0.2,0.2-0.5,0.3-0.9,0.3h-3.3L178.6,9h4.3L191.8,31.6z M184.4,23.1l-2.8-7.5c-0.1-0.4-0.3-0.7-0.4-1.2
			c-0.1-0.5-0.3-0.9-0.4-1.5c-0.1,0.5-0.3,1-0.4,1.5c-0.1,0.5-0.3,0.9-0.4,1.2l-2.7,7.5L184.4,23.1L184.4,23.1z"/>
		<path class="st3" d="M210.6,31.6h-3.8c-0.7,0-1.2-0.3-1.6-0.8l-4.8-7.3c-0.2-0.3-0.4-0.5-0.6-0.6c-0.2-0.1-0.5-0.2-0.9-0.2h-1.8
			v8.8h-4.2V9.1h6.8c1.5,0,2.8,0.2,3.9,0.5s2,0.8,2.7,1.4s1.2,1.2,1.5,2.1c0.4,0.8,0.5,1.7,0.5,2.7c0,0.8-0.1,1.5-0.4,2.2
			c-0.2,0.6-0.5,1.3-0.9,1.8c-0.4,0.5-0.9,1.1-1.6,1.5c-0.6,0.4-1.3,0.8-2.1,1c0.3,0.2,0.5,0.4,0.8,0.5c0.2,0.2,0.4,0.5,0.6,0.8
			L210.6,31.6z M199.7,19.8c0.8,0,1.5-0.1,2.1-0.3c0.6-0.2,1.1-0.5,1.5-0.8c0.4-0.4,0.6-0.8,0.8-1.2c0.2-0.5,0.3-1,0.3-1.6
			c0-1.1-0.4-2-1.1-2.7c-0.8-0.6-1.9-0.9-3.5-0.9h-2.7v7.5H199.7z"/>
		<path class="st3" d="M226.9,12.5h-6.8v19.2h-4.2V12.5h-6.8V9.1h17.8L226.9,12.5L226.9,12.5z"/>
		<path class="st3" d="M245.8,31.6h-3.2c-0.4,0-0.6-0.1-0.9-0.3c-0.2-0.2-0.4-0.4-0.5-0.7l-1.7-4.6h-9.4l-1.7,4.6
			c-0.1,0.2-0.2,0.5-0.5,0.6c-0.2,0.2-0.5,0.3-0.9,0.3h-3.3L232.6,9h4.3L245.8,31.6z M238.4,23.1l-2.8-7.5c-0.1-0.4-0.3-0.7-0.4-1.2
			c-0.1-0.5-0.3-0.9-0.4-1.5c-0.1,0.5-0.3,1-0.4,1.5c-0.1,0.5-0.3,0.9-0.4,1.2l-2.7,7.5L238.4,23.1L238.4,23.1z"/>
		<path class="st3" d="M266,9.1v22.6h-2.2c-0.4,0-0.6-0.1-0.8-0.2c-0.2-0.1-0.4-0.3-0.6-0.5l-11.8-15.1c0.1,0.7,0.1,1.3,0.1,1.9
			v13.9h-3.7V9h2.2c0.2,0,0.4,0,0.5,0c0.1,0,0.2,0.1,0.4,0.1c0.1,0.1,0.2,0.1,0.3,0.2c0.1,0.1,0.2,0.2,0.3,0.4l11.8,15.2
			c-0.1-0.4-0.1-0.7-0.1-1.1c0-0.4-0.1-0.7-0.1-1V9L266,9.1L266,9.1z"/>
	</g>
	<g>
		<path class="st3" d="M104.5,46.3h-6v16.5H96V46.3h-6v-2.1h14.6L104.5,46.3L104.5,46.3z"/>
		<path class="st3" d="M122.6,53.5c0,1.4-0.2,2.7-0.6,3.8c-0.4,1.2-1.1,2.2-1.9,3c-0.8,0.8-1.8,1.5-2.9,1.9
			c-1.1,0.5-2.4,0.7-3.8,0.7c-1.4,0-2.6-0.2-3.7-0.7c-1.1-0.5-2.1-1.1-2.9-1.9c-0.8-0.8-1.4-1.8-1.9-3c-0.4-1.2-0.6-2.4-0.6-3.8
			c0-1.4,0.2-2.7,0.6-3.8s1.1-2.2,1.9-3s1.8-1.5,2.9-1.9c1.1-0.5,2.4-0.7,3.7-0.7s2.6,0.2,3.8,0.7c1.1,0.5,2.1,1.1,2.9,1.9
			c0.8,0.8,1.4,1.8,1.9,3C122.4,50.9,122.6,52.2,122.6,53.5z M120,53.5c0-1.1-0.2-2.2-0.5-3.1c-0.3-0.9-0.8-1.7-1.3-2.3
			c-0.6-0.6-1.2-1.1-2.1-1.5s-1.7-0.5-2.7-0.5c-1,0-1.9,0.2-2.7,0.5c-0.8,0.4-1.5,0.8-2.1,1.5c-0.6,0.6-1,1.4-1.4,2.3
			c-0.3,0.9-0.5,1.9-0.5,3.1c0,1.1,0.2,2.2,0.5,3.1c0.3,0.9,0.8,1.7,1.4,2.3c0.6,0.6,1.3,1.1,2.1,1.4c0.8,0.4,1.7,0.5,2.7,0.5
			c1,0,1.9-0.2,2.7-0.5c0.8-0.4,1.5-0.8,2.1-1.4c0.6-0.6,1-1.4,1.3-2.3C119.8,55.7,120,54.7,120,53.5z"/>
		<path class="st3" d="M141.2,53.5c0,1.4-0.2,2.7-0.6,3.8c-0.4,1.1-1.1,2.1-1.9,2.9c-0.8,0.8-1.8,1.4-2.9,1.9
			c-1.1,0.5-2.4,0.6-3.8,0.6h-7V44.3h7c1.4,0,2.6,0.2,3.8,0.6c1.1,0.5,2.1,1.1,2.9,1.9c0.8,0.8,1.4,1.8,1.9,2.9
			C141.1,50.9,141.2,52.2,141.2,53.5z M138.7,53.5c0-1.1-0.2-2.2-0.5-3.1c-0.3-0.9-0.8-1.7-1.3-2.3c-0.6-0.6-1.2-1.1-2.1-1.4
			c-0.8-0.4-1.7-0.5-2.7-0.5h-4.4v14.5h4.4c1,0,1.9-0.2,2.7-0.5c0.8-0.3,1.5-0.8,2.1-1.4c0.6-0.6,1-1.4,1.3-2.3
			C138.5,55.7,138.7,54.7,138.7,53.5z"/>
		<path class="st3" d="M158.4,62.8h-1.9c-0.2,0-0.4-0.1-0.5-0.2c-0.1-0.1-0.2-0.2-0.3-0.4l-1.8-4.5h-8.4l-1.8,4.5
			c-0.1,0.2-0.2,0.3-0.3,0.4c-0.1,0.1-0.4,0.2-0.5,0.2H141l7.4-18.6h2.5L158.4,62.8z M153.2,55.9l-2.9-7.5c-0.1-0.2-0.2-0.5-0.3-0.8
			c-0.1-0.3-0.2-0.6-0.3-0.9c-0.2,0.7-0.4,1.3-0.5,1.8l-2.9,7.5L153.2,55.9L153.2,55.9z"/>
		<path class="st3" d="M165,55.4v7.4h-2.5v-7.4l-6.8-11.2h2.2c0.2,0,0.4,0.1,0.5,0.2c0.1,0.1,0.2,0.2,0.4,0.4L163,52
			c0.2,0.3,0.3,0.6,0.4,0.8s0.2,0.5,0.4,0.8c0.1-0.3,0.2-0.5,0.4-0.8c0.1-0.2,0.2-0.5,0.4-0.8l4.2-7.3c0.1-0.1,0.2-0.3,0.4-0.4
			c0.1-0.1,0.3-0.2,0.5-0.2h2.2L165,55.4z"/>
	</g>
</g>
</svg>
