<?xml version="1.0" encoding="utf-8"?>
<!-- Generator: Adobe Illustrator 22.1.0, SVG Export Plug-In . SVG Version: 6.00 Build 0)  -->
<svg version="1.1" id="Layer_1" xmlns="http://www.w3.org/2000/svg" xmlns:xlink="http://www.w3.org/1999/xlink" x="0px" y="0px"
	 viewBox="0 0 72 72" style="enable-background:new 0 0 72 72;" xml:space="preserve">
<style type="text/css">
	.st0{fill:#FFFFFF;}
</style>
<g>
	<path class="st0" d="M72,28.6C72,18,63.4,9.4,52.7,9.4c-3.9,0-7.5,1.2-10.6,3.2l10.9,21.7l8.6-6.1l-1.3-0.9l4.8-1.1l-2.5,3.9
		l-0.5-1.4l-8.3,7.1L43,45.2l-26,23c18.3-2.8,37-1.5,55,3.8L59.3,46.8C66.7,44.1,72,37,72,28.6z"/>
	<path class="st0" d="M18,36.1L0,72l40.4-28.6c-4.2-3.5-6.9-8.8-6.9-14.7c0-6.7,3.5-12.6,8.7-16.1L36,0.1L18,36.1z"/>
</g>
</svg>
