<?xml version="1.0" standalone="no"?>
<!DOCTYPE svg PUBLIC "-//W3C//DTD SVG 1.1//EN" "http://www.w3.org/Graphics/SVG/1.1/DTD/svg11.dtd">
<svg xmlns="http://www.w3.org/2000/svg">
<metadata>Copyright (C) 2018 by original authors @ fontello.com</metadata>
<defs>
<font id="icon-v2" horiz-adv-x="1000" >
<font-face font-family="icon-v2" font-weight="400" font-stretch="normal" units-per-em="1000" ascent="850" descent="-150" />
<missing-glyph horiz-adv-x="1000" />
<glyph glyph-name="alarmclock" unicode="&#xe800;" d="M858 523c11 9 54 50 55 109 1 43-20 83-61 119l-1 1c-49 39-93 41-120 35-49-8-80-42-95-61-43 15-88 24-136 24-47 0-93-9-136-24-14 19-46 53-95 61-27 6-71 4-119-35l-2-1c-41-36-61-76-61-119 1-59 44-100 55-109-24-52-38-109-38-170 0-100 38-191 98-260 0-1-1-1-1-2l-58-86c-12-18-7-43 11-55 6-4 14-7 22-7 13 0 25 7 33 18l51 77c68-51 150-81 240-81 91 0 175 30 242 82l51-78c8-11 20-18 33-18 8 0 16 3 22 7 18 12 23 36 11 55l-57 86c-1 1-2 2-2 3 60 69 97 160 97 259-1 61-15 118-39 170z m-113 187c17 4 36-3 56-19 22-20 33-39 33-56 0-17-10-32-19-43-29 38-65 72-106 98 10 8 22 18 36 20z m-579-76c0 18 11 37 33 57 21 16 40 23 56 19 14-2 26-10 36-20-41-27-78-60-106-98-9 10-19 25-19 42z m334-598c-175 0-318 143-318 317 0 176 143 318 318 318s318-143 318-318c0-175-143-317-318-317z m143 231c15-16 15-41 0-57-8-7-18-10-28-10s-19 4-27 12l-115 114c-8 8-11 17-11 27v212c0 22 17 40 39 40s40-18 40-40v-195l102-103z" horiz-adv-x="1000" />

<glyph glyph-name="alert" unicode="&#xe801;" d="M887-29h-774c-13 0-25 6-32 17-6 11-6 26 0 37l387 675c7 10 19 18 32 18s25-6 32-18l387-674c6-11 6-25 0-36-8-13-20-19-32-19z m-710 72h646l-323 565-323-565z m359 219v169c0 20-16 37-36 37s-36-17-36-37v-169c0-20 16-36 36-36s36 15 36 36z m-3-152c9 9 13 20 13 32 0 12-4 25-13 32-9 9-21 13-33 13-12 0-24-4-33-13-9-9-13-20-13-32 0-12 4-24 13-32 9-8 21-13 33-13 12 0 24 5 33 13z" horiz-adv-x="1000" />

<glyph glyph-name="align-center" unicode="&#xe802;" d="M880 662h-760c-23 0-42 19-42 42s19 42 42 42h760c23 0 42-19 42-42s-19-42-42-42z m-120-183c0 23-18 41-41 41h-438c-23 0-41-18-41-41 0-23 18-42 41-42h438c23 0 41 19 41 42z m65-227c0 23-18 42-41 42h-567c-24 0-42-19-42-42 0-23 18-42 42-42h565c25-1 43 18 43 42z m77-224c0 23-18 42-42 42h-719c-23 0-42-19-42-42 0-23 19-42 42-42h719c24 0 42 19 42 42z" horiz-adv-x="1000" />

<glyph glyph-name="align-justify" unicode="&#xe803;" d="M880 662h-761c-23 0-42 19-42 42s19 42 42 42h760c23 0 42-19 42-42s-18-42-41-42z m42-183c0 23-19 41-42 41h-761c-23 0-42-18-42-41 0-23 19-42 42-42h760c24 0 43 19 43 42z m0-226c0 23-19 42-42 42h-761c-23 0-42-19-42-42 0-23 19-41 42-41h760c24 0 43 18 43 41z m-380-225c0 23-19 42-42 42h-378c-23 0-42-19-42-42 0-23 19-42 42-42h377c23 0 43 19 43 42z" horiz-adv-x="1000" />

<glyph glyph-name="align-left" unicode="&#xe804;" d="M880 662h-760c-23 0-42 19-42 42s19 42 42 42h760c23 0 42-19 42-42s-19-42-42-42z m-281-183c0 23-19 41-42 41h-437c-23 0-42-18-42-41 0-23 19-42 42-42h437c23 0 42 19 42 42z m130-226c0 23-19 42-42 42h-567c-23 0-42-19-42-42 0-23 19-41 42-41h566c23 0 43 18 43 41z m156-225c0 23-19 42-42 42h-720c-23 0-42-19-42-42 0-23 19-42 42-42h720c23 0 42 19 42 42z" horiz-adv-x="1000" />

<glyph glyph-name="align-right" unicode="&#xe805;" d="M880 662h-760c-23 0-42 19-42 42s19 42 42 42h760c23 0 42-19 42-42s-19-42-42-42z m42-183c0 23-19 41-42 41h-437c-23 0-42-18-42-41 0-23 19-42 42-42h437c23 0 42 19 42 42z m0-227c0 23-19 42-42 42h-566c-23 0-41-19-41-42 0-23 18-42 41-42h566c23-1 42 18 42 42z m0-224c0 23-19 42-42 42h-720c-23 0-41-19-41-42 0-23 18-42 41-42h720c23 0 42 19 42 42z" horiz-adv-x="1000" />

<glyph glyph-name="anchor" unicode="&#xe806;" d="M881 285c-6 8-17 12-27 12h-119c-20 0-36-16-36-36 0-20 16-36 36-36h72c-38-119-141-204-265-218v485c61 16 106 72 106 138 0 79-63 143-142 143-78 0-143-64-143-143 0-66 41-122 105-138v-486c-127 14-227 99-265 218h72c20 0 36 16 36 36 0 20-16 36-36 36h-118c-11 0-21-3-27-12-7-8-10-19-8-30 32-189 193-325 385-325 191 0 352 136 384 325 0 13-3 22-10 31z m-445 345c0 39 31 70 70 70 38 0 69-31 69-70 0-38-31-69-69-69-39-1-70 31-70 69z" horiz-adv-x="1000" />

<glyph glyph-name="angle-down" unicode="&#xe807;" d="M737 518c17 18 45 18 63 1 9-9 13-21 13-32 0-11-4-22-12-30l-275-286c-8-9-19-13-31-13-13 0-24 4-32 13l-275 286c-17 17-17 45 1 62 18 17 45 17 63-1l243-253 242 253z" horiz-adv-x="1000" />

<glyph glyph-name="angle-left-right" unicode="&#xe808;" d="M628 57c-10 0-21 4-29 12-15 15-14 40 1 56l226 217-225 218c-15 15-16 40-1 56 15 15 40 16 56 1l256-246c8-8 12-18 12-29s-4-21-12-28l-257-246c-8-8-18-11-27-11z m-228 12c15 15 14 40-1 56l-226 217 226 218c15 15 16 40 1 56-15 15-40 16-56 1l-255-247c-8-7-12-18-12-28s4-21 12-28l256-246c8-8 18-11 28-11 9 0 19 4 27 12z" horiz-adv-x="1000" />

<glyph glyph-name="angle-left" unicode="&#xe809;" d="M668 102c18-17 18-45 1-63-9-9-21-13-32-13-11 0-22 4-30 12l-286 275c-9 8-13 19-13 32s4 23 13 31l286 275c17 17 45 17 62-1 17-18 17-45-1-63l-253-242 253-243z" horiz-adv-x="1000" />

<glyph glyph-name="angle-up" unicode="&#xe80a;" d="M252 171c-17-18-45-18-63-1-9 9-13 21-13 32 0 11 4 22 12 30l275 286c8 9 19 13 32 13 12 0 23-4 31-13l275-286c17-17 17-45-1-62-18-17-45-17-63 1l-242 253-243-253z" horiz-adv-x="1000" />

<glyph glyph-name="angle-right" unicode="&#xe80b;" d="M321 587c-18 17-18 45-1 63 9 9 21 13 32 13 11 0 22-4 30-12l286-275c9-8 13-19 13-31 0-13-4-24-13-32l-286-275c-17-17-45-17-62 1-17 18-17 45 1 63l253 243-253 242z" horiz-adv-x="1000" />

<glyph glyph-name="apps" unicode="&#xe80c;" d="M214 564c-19 0-40 9-55 23-14 15-22 34-22 54s9 40 22 55c15 14 34 22 55 22 20 0 40-9 54-22 14-14 23-34 23-55 0-20-9-39-23-54-14-14-34-23-54-23z m340 23c14 15 23 34 23 54s-9 40-23 55c-14 14-34 22-54 22-20 0-41-9-55-22-14-14-22-34-22-55 0-20 9-39 22-54 14-14 34-23 55-23 20 0 40 9 54 23z m286 0c14 15 23 34 23 54s-9 40-23 55c-15 14-34 22-54 22s-41-9-55-22c-14-14-22-34-22-55 0-20 9-39 22-54 14-14 34-23 55-23 20 0 39 9 54 23z m-572-274c14 14 23 34 23 54 0 19-9 39-23 54-14 15-34 22-54 22s-40-8-55-22c-14-14-22-34-22-54 0-20 9-40 22-54 15-15 34-23 55-23 20 0 40 8 54 23z m286 0c14 14 23 34 23 54 0 19-9 39-23 54-14 15-34 22-54 22-20 0-41-8-55-22-14-14-22-34-22-54 0-20 9-40 22-54 14-15 34-23 55-23 20 0 40 8 54 23z m286 0c14 14 23 34 23 54 0 19-9 39-23 54-15 15-34 22-54 22s-41-8-55-22c-14-14-22-34-22-54 0-20 9-40 22-54 14-15 34-23 55-23 20 0 39 8 54 23z m-572-275c14 14 23 34 23 54s-9 39-23 55c-14 14-34 22-54 22s-40-9-55-22c-14-15-22-34-22-55 0-20 9-40 22-54 15-14 34-23 55-23 20 0 40 9 54 23z m286 0c14 14 23 34 23 54s-9 39-23 55c-14 14-34 22-54 22-20 0-41-9-55-22-14-15-22-34-22-55 0-20 9-40 22-54 14-14 34-23 55-23 20 0 40 9 54 23z m286 0c14 14 23 34 23 54s-9 39-23 55c-15 14-34 22-54 22s-41-9-55-22c-14-15-22-34-22-55 0-20 9-40 22-54 14-14 34-23 55-23 20 0 39 9 54 23z" horiz-adv-x="1000" />

<glyph glyph-name="archive-o" unicode="&#xe80d;" d="M902 715h-796c-15 0-28-11-28-24v-167c0-15 10-26 24-26h21v-456c0-14 11-24 24-24h707c14 0 21 11 21 24v461h24c14 0 21 11 21 24v164c8 13-3 24-18 24z m-91-625h-618v413h618v-413z m45 480h-708v75h708v-75z m-369-409c3-3 6-7 14-7 7 0 7 0 14 7l126 125c3 4 6 7 6 15 0 6-3 11-6 14s-7 6-15 6h-48v91c0 6-7 14-14 14h-129c-6 0-14-7-14-14v-91h-48c-4 0-7 0-15-6-3-5-6-8-6-14s0-7 6-15l129-125z" horiz-adv-x="1000" />

<glyph glyph-name="archive" unicode="&#xe80e;" d="M222 592c0 20 17 36 36 36h483c19 0 36-16 36-36s-17-36-36-36h-483c-21-2-36 15-36 36z m97 91h361c18 0 32 14 32 32s-14 32-32 32h-361c-18 0-32-15-32-32s14-32 32-32z m602-134v-100l0 0 0 0 0 0 0 0c0-3-1-7-1-10l-118-426c-4-16-18-28-35-28h-537c-17 0-31 11-35 28l-117 426c0 2-1 3-1 6s0 3 0 5v99c0 20 16 36 36 36s37-16 37-36v-68h697v68c0 20 17 36 37 36 20 1 37-15 37-36z m-85-141h-674l95-349h242 240l97 349z m-445-183h217c20 0 36 16 36 36s-16 36-36 36h-217c-20 0-36-16-36-36-1-20 15-36 36-36z" horiz-adv-x="1000" />

<glyph glyph-name="arrow-down-left" unicode="&#xe80f;" d="M790 590l-454-454 283 0c24 0 44-20 44-44 0-24-20-44-44-44l-388 0c-24 0-44 20-44 44l0 388c0 12 4 23 13 30 8 8 19 14 31 14 24 0 44-20 44-44l0-283 454 454c17 18 45 18 62 0s17-45-1-61z" horiz-adv-x="1000" />

<glyph glyph-name="arrow-down-right" unicode="&#xe810;" d="M262 651l453-454 0 283c0 24 20 44 44 44 25 0 44-20 44-44l-1-388c0-24-20-44-44-44l-388 0c-12 0-23 4-30 13-8 8-14 19-14 31 0 24 20 44 44 44l283 0-454 454c-18 17-18 45 0 62 18 17 45 17 63-1z" horiz-adv-x="1000" />

<glyph glyph-name="arrow-down" unicode="&#xe811;" d="M539 729v-642l200 199c17 18 45 18 62 0 18-17 18-45 0-62l-275-274c-17-18-45-18-61 0l-275 274c-9 8-13 19-13 30 0 11 4 22 13 31 18 18 45 18 63 0l198-198v642c0 24 19 44 44 44s44-20 44-44z" horiz-adv-x="1000" />

<glyph glyph-name="arrow-left" unicode="&#xe812;" d="M912 356c0-25-20-44-44-44h-642l199-200c18-18 18-45 0-63-7-8-18-12-30-12-11 0-24 4-31 13l-274 275c-17 17-17 45 0 61l274 275c17 18 45 18 62 0 18-18 18-45 0-63l-200-198h642c24 0 44-20 44-44z" horiz-adv-x="1000" />

<glyph glyph-name="arrow-right" unicode="&#xe813;" d="M121 400h642l-200 200c-18 17-18 45 0 62 17 18 45 18 62 0l274-275c18-17 18-45 0-61l-274-275c-8-9-19-13-30-13-11 0-22 4-31 13-18 18-18 45 0 63l199 198h-642c-24 0-44 19-44 44s20 44 44 44z" horiz-adv-x="1000" />

<glyph glyph-name="arrow-up-left" unicode="&#xe814;" d="M729 60l-454 454 0-283c0-24-20-44-44-44-24 0-44 20-44 44l0 388c0 24 20 44 44 44l388 0c12 0 23-4 31-13 7-8 13-19 13-31 0-24-20-44-44-44l-283 0 454-454c18-17 18-45 0-62s-45-16-61 1z" horiz-adv-x="1000" />

<glyph glyph-name="arrow-up-right" unicode="&#xe815;" d="M199 123l454 453-283 0c-24 0-44 20-44 44 0 25 20 44 44 44l388-1c24 0 44-20 44-44l0-388c0-12-4-23-13-30-8-8-19-14-31-14-24 0-44 20-44 44l0 283-452-454c-18-18-45-18-63 0-17 18-17 45 0 63z" horiz-adv-x="1000" />

<glyph glyph-name="arrow-up" unicode="&#xe816;" d="M451-18v642l-200-200c-18-18-45-18-63 0-18 17-18 45 0 62l275 274c17 18 45 18 61 0l275-274c9-8 13-19 13-30 0-11-4-22-13-31-18-18-45-18-63 0l-197 199v-642c0-24-20-44-44-44s-44 20-44 44z" horiz-adv-x="1000" />

<glyph glyph-name="article" unicode="&#xe817;" d="M826 751c0 21-17 39-38 39h-577c-21 0-38-18-38-39v-769c0-21 17-39 38-39h577c21 0 38 18 38 39v769z m-76-731h-500v693h500v-693z m-404 140c0 19 16 34 34 34h229c19 0 34-15 34-34 0-19-15-34-34-34h-230c-19 0-33 15-33 34z m0 134c0 19 16 34 34 34h229c19 0 34-15 34-34s-15-34-34-34h-230c-19 1-33 15-33 34z m298 279c0 19-15 34-34 34h-231c-19 0-34-15-34-34v-134c0-19 15-34 34-34h231c19 0 34 15 34 34v134z m-231-33h164v-67h-164v67z" horiz-adv-x="1000" />

<glyph glyph-name="backspace" unicode="&#xe818;" d="M922 367v-163c0-22-14-41-36-41s-36 19-36 41v122h-627l94-94c16-15 14-41-2-57-7-7-19-12-29-12-10 0-21 5-30 12l-165 163c-9 8-13 18-13 29s4 20 12 28l165 163c16 15 42 15 57 0 16-17 16-42 0-57l-94-94h662c11 0 23-4 31-12 7-8 11-17 11-28z" horiz-adv-x="1000" />

<glyph glyph-name="bag" unicode="&#xe819;" d="M818 561c-7 7-17 12-27 12h-93v18c0 110-90 199-196 199h-4c-106 0-196-89-196-199v-18h-93c-21 0-38-19-38-39v-553c0-21 17-38 38-38h582c21 0 38 17 38 38v553c0 11-5 20-11 27z m-441 29c0 68 56 124 120 124h4c64 0 120-56 120-124v-18h-244v18z m376-572h-507v479h56v-65c0-20 17-37 38-37s37 17 37 37v65h244v-65c0-20 16-37 37-37s38 17 38 37v65h56l1-479z" horiz-adv-x="1000" />

<glyph glyph-name="ball" unicode="&#xe81a;" d="M500 787c-232 0-421-189-421-420s189-421 421-421 421 189 421 421-189 420-421 420z m266-645c-24 22-64 68-78 139 71 10 122 25 156 37-9-66-36-126-78-176z m-611 176c34-12 85-26 156-37-14-72-54-117-78-139-41 50-68 110-78 176z m58 246c29-30 93-110 102-208-87 12-140 33-161 41 5 62 26 119 59 167z m633-167c-21-10-72-29-161-43 8 99 72 178 102 210 33-48 54-105 59-167z m-236-51c-23-3-46-4-74-4v371c74-8 148-42 203-93-35-36-122-139-129-274z m-146-4c-28 1-51 3-74 5-6 134-94 237-128 272 53 51 128 85 202 93 0 0 0-370 0-370z m-79-69c24-2 50-3 78-4v-249c-64 7-127 33-177 72 34 31 83 91 99 181z m151-4c28 1 54 2 78 4 17-90 65-150 98-181-49-39-112-64-177-72v249h1z" horiz-adv-x="1000" />

<glyph glyph-name="ban" unicode="&#xe81b;" d="M799 649c-165 165-434 165-599 0-165-165-165-434 0-599 84-81 191-123 300-123 109 0 217 42 299 124 166 165 166 433 0 598z m-546-546c-128 127-136 329-24 467l491-491c-138-113-340-104-467 24z m518 27l-491 491c64 52 142 79 220 79 89 0 179-35 247-103 128-127 137-329 24-467z" horiz-adv-x="1000" />

<glyph glyph-name="battery-empty" unicode="&#xe81c;" d="M921 435v-135c0-20-17-33-36-33h-28v-102c0-19-16-36-36-36h-706c-19 0-36 17-36 36v403c0 19 17 36 36 36h706c20 0 36-17 36-36v-101h28c19 1 36-13 36-32z m-137 96h-632v-329h632v96 137 96z" horiz-adv-x="1000" />

<glyph glyph-name="battery-full" unicode="&#xe81d;" d="M536 293c0-20-16-36-36-36h-64c-19 0-36 16-36 36v147c0 20 17 36 36 36h64c20 0 36-16 36-36v-147z m93-36h63c20 0 37 16 37 36v93c0 9-3 18-8 24l-48 55c-7 8-17 11-28 11h-17c-20 0-37-14-37-34v-148c0-21 17-37 38-37z m-285 183c0 20-16 36-36 36h-64c-20 0-36-16-36-36v-146c0-20 16-36 36-36h64c20 0 36 16 36 36v146z m577-5v-135c0-20-17-33-36-33h-28v-102c0-19-16-36-36-36h-706c-19 0-36 17-36 36v403c0 19 17 36 36 36h706c20 0 36-17 36-36v-101h28c19 1 36-13 36-32z m-137 96h-632v-329h632v96 137 96z" horiz-adv-x="1000" />

<glyph glyph-name="battery-low" unicode="&#xe81e;" d="M344 440c0 20-16 36-36 36h-64c-20 0-36-16-36-36v-146c0-20 16-36 36-36h64c20 0 36 16 36 36v146z m577-5v-135c0-20-17-33-36-33h-28v-102c0-19-16-36-36-36h-706c-19 0-36 17-36 36v403c0 19 17 36 36 36h706c20 0 36-17 36-36v-101h28c19 1 36-13 36-32z m-137 96h-632v-329h632v96 137 96z" horiz-adv-x="1000" />

<glyph glyph-name="battery-mid" unicode="&#xe81f;" d="M536 293c0-20-16-36-36-36h-64c-19 0-36 16-36 36v147c0 20 17 36 36 36h64c20 0 36-16 36-36v-147z m-192 147c0 20-16 36-36 36h-64c-20 0-36-16-36-36v-146c0-20 16-36 36-36h64c20 0 36 16 36 36v146z m577-5v-135c0-20-17-33-36-33h-28v-102c0-19-16-36-36-36h-706c-19 0-36 17-36 36v403c0 19 17 36 36 36h706c20 0 36-17 36-36v-101h28c19 1 36-13 36-32z m-137 96h-632v-329h632v96 137 96z" horiz-adv-x="1000" />

<glyph glyph-name="behance-circle" unicode="&#xe820;" d="M406 418c11 7 14 18 14 32 0 18-7 29-21 35-11 4-29 7-46 7h-71v-85h82c17 1 32 5 42 11z m265-6c-17 0-31-4-42-15-11-11-18-25-18-43h124l0 0c0 18-6 32-17 43-15 11-29 15-47 15z m-269-72c-11 3-21 7-38 7h-82v-102h82c17 0 28 3 38 6 18 7 26 25 26 46 0 22-8 37-26 43z m96 450c-233 0-421-188-421-421s188-421 421-421 424 188 424 421-191 421-424 421z m95-248h157v-38l0 0h-153v38h-4z m-103-307c-6-11-17-21-28-29-11-11-26-14-43-17s-35-4-53-4h-169v375h183c46 0 78-14 99-39 11-17 18-35 18-56 0-25-7-42-18-56-6-6-17-14-28-20 17-7 35-18 42-32 11-15 15-36 15-56 1-31-7-49-18-66z m145 14c11-7 25-11 39-11 17 0 28 3 38 14 7 4 11 11 14 18h76c-3-18-11-32-25-50-25-25-60-38-102-38-35 0-67 11-96 32-28 21-43 60-43 110 0 46 15 84 39 110 25 25 56 38 99 38 25 0 46-3 63-14 18-7 36-21 47-39s17-35 20-56c4-14 4-32 4-53h-200c3-29 10-51 27-61z" horiz-adv-x="1000" />

<glyph glyph-name="behance-square" unicode="&#xe821;" d="M406 418c11 7 14 18 14 32 0 18-7 29-21 35-11 4-29 7-46 7h-71v-85h82c17 1 32 5 42 11z m-4-78c-11 3-21 7-38 7h-82v-102h82c17 0 28 3 38 6 18 7 26 25 26 46 0 22-8 37-26 43z m269 72c-17 0-31-4-42-15-11-11-18-25-18-43h124l0 0c0 18-6 32-17 43-15 11-29 15-47 15z m-594 378v-846h845v846h-845z m516-248h157v-38l0 0h-153v38h-4z m-103-307c-6-11-17-21-28-29-11-11-26-14-43-17s-35-4-53-4h-169v375h183c46 0 78-14 99-39 11-17 18-35 18-56 0-25-7-42-18-56-6-6-17-14-28-20 17-7 35-18 42-32 11-15 15-36 15-56 1-31-7-49-18-66z m316 70h-198c0-29 11-46 28-56 11-7 26-11 39-11 17 0 28 3 38 14 7 4 11 11 15 18h74c-3-18-11-32-25-50-25-25-60-38-102-38-35 0-67 11-96 32-28 21-43 60-43 110 0 46 15 84 39 110 25 25 56 38 99 38 25 0 46-3 63-14 18-7 36-21 47-39s17-35 20-56c2-15 2-33 2-58z" horiz-adv-x="1000" />

<glyph glyph-name="behance" unicode="&#xe822;" d="M841 557h-211v49h211v-49l0 0z m-352-219c14-21 21-46 21-77 0-32-7-59-24-85-11-17-21-31-39-41-17-15-35-21-59-25-21-3-49-6-74-6h-237v526h254c64 0 109-21 137-56 18-21 24-49 24-81 0-32-6-56-24-77-11-11-21-21-38-29 24-9 45-27 59-49z m-292 85h113c21 0 42 3 56 14 14 6 21 24 21 46 0 24-11 42-29 49-17 7-35 7-63 7h-99v-116z m201-152c0 29-11 46-32 56-14 7-32 7-53 11h-116v-141h113c21 0 42 4 53 11 24 7 35 28 35 63z m521 85c3-18 3-42 3-74h-275c0-39 15-64 39-81 14-11 32-15 53-15 20 0 41 7 56 18 6 6 14 14 20 24h103c-4-21-15-46-36-67-35-35-81-56-140-56-50 0-96 14-134 46-39 32-56 81-56 152 0 67 17 116 52 151s82 53 135 53c31 0 63-6 87-17 25-11 50-32 64-56 14-21 25-50 29-78z m-99-10c-3 24-11 46-24 59-15 14-36 21-60 21s-46-7-59-21c-14-14-21-35-24-59h167l0 0z" horiz-adv-x="1000" />

<glyph glyph-name="bell" unicode="&#xe823;" d="M850 131c-62 0-86 37-86 262 0 177-80 287-218 303v56c0 21-16 38-36 38s-37-17-37-38v-55c-148-12-233-124-233-304 0-225-27-262-89-262-21 0-38-14-38-34 0-21 17-34 37-34h239c3-27 11-61 33-86 19-20 45-33 76-33 30 0 56 13 76 33 23 25 33 59 36 86h240c20 0 37 15 37 34 0 20-17 34-37 34z m-330-105c-3-5-10-10-22-10s-18 5-21 10c-8 8-11 17-13 36h31c2 0 3 0 5 0s3 0 6 0h29c-2-19-7-27-15-36z m-14 110c-3 0-4 0-6 0s-3 0-5 0h-218c34 65 34 165 34 258 0 149 65 230 184 230h11c117 0 183-79 183-230 0-93 0-194 34-258h-217z" horiz-adv-x="1000" />

<glyph glyph-name="blocks" unicode="&#xe824;" d="M393 404h-262c-30 0-54 24-54 54v206c0 30 24 54 54 54h262c30 0 54-24 54-54v-206c0-30-24-54-54-54z m-239 77h216v160h-216v-160z m715-77h-262c-30 0-54 24-54 54v206c0 30 24 54 54 54h262c30 0 54-24 54-54v-206c0-30-24-54-54-54z m-239 77h216v160h-216v-160z m-237-494h-262c-30 0-54 25-54 54v207c0 30 24 54 54 54h262c30 0 54-24 54-54v-207c0-29-24-54-54-54z m-239 77h216v161h-216v-161z m715-77h-262c-30 0-54 25-54 54v207c0 30 24 54 54 54h262c30 0 54-24 54-54v-207c0-29-24-54-54-54z m-239 77h216v161h-216v-161z" horiz-adv-x="1000" />

<glyph glyph-name="blog" unicode="&#xe825;" d="M826 751c0 21-17 39-38 39h-577c-21 0-38-18-38-39v-769c0-21 17-39 38-39h577c21 0 38 18 38 39v769z m-76-731h-500v693h500v-693z m-418 164c0 21 18 39 38 39h260c21 0 38-18 38-39 0-21-17-38-38-38h-260c-22 0-38 16-38 38z m5 183c0 20 18 38 39 38h254c21 0 38-18 38-38 0-21-17-39-38-39h-254c-21 0-39 18-39 39z m0 182c0 21 18 38 39 38h254c21 0 38-17 38-38s-17-39-38-39h-254c-21 0-39 18-39 39z" horiz-adv-x="1000" />

<glyph glyph-name="bluetooth" unicode="&#xe826;" d="M554 367l165 162c14 14 14 38 0 52l-193 198c-11 11-26 14-40 8s-23-18-23-34v-295l-131 128c-14 15-37 15-52 0-14-14-14-37 0-51l170-168-170-169c-14-14-14-37 0-51 8-8 17-11 27-11s18 3 26 11l131 129v-295c0-16 9-29 23-34 4-3 9-3 14-3 10 0 20 4 27 11l193 197c14 15 14 38 0 52l-167 163z m-18 296l105-106-105-104v210z m0-592v210l105-103-105-107z" horiz-adv-x="1000" />

<glyph glyph-name="bolt" unicode="&#xe827;" d="M490 423c61 33 174 91 174 91s-214-380-321-571c-1 1 78 229 121 349-51-25-96-47-141-71 1 6 59 320 86 468 3 15 9 21 24 26 25 8 243 74 243 74s-181-357-186-366z" horiz-adv-x="1000" />

<glyph glyph-name="book" unicode="&#xe828;" d="M806 574h-505c-43 0-76 33-76 76s33 76 76 76h505c15 0 31 11 31 32 0 16-15 32-31 32h-505c-76 0-139-64-139-140v-567c0-76 63-140 139-140h505c16 0 31 16 31 32v567c0 17-15 32-31 32z m-32-64v-506h-473c-43 0-76 33-76 76v452c20-14 46-22 76-22h473z m-396-405l0 0c15-5 36 0 41 16l28 74h97l29-74c6-12 17-19 30-19h9l2 1c9 3 16 10 19 18 3 8 2 17-2 24l-90 238c-5 17-21 29-42 29-21 0-37-11-42-29l-88-236c-6-5-10-12-10-20 1-9 9-19 19-22z m92 154l23 60 24-60h-47z m316 420h-473c-16 0-32-16-32-32s16-32 32-32h473c16 0 32 15 32 32s-16 32-32 32z" horiz-adv-x="1000" />

<glyph glyph-name="box" unicode="&#xe829;" d="M763 569h-528c-20 0-36-17-36-37l-6-468c0-10 4-19 11-26 7-7 17-11 27-11h536c10 0 19 4 26 11 7 7 11 16 11 26l-4 467c0 21-16 38-37 38z m-264-468h-232l4 394h455l4-394h-231z m118 293c0-20-17-36-37-36h-161c-20 0-37 16-37 36s17 36 37 36h160c21 0 38-15 38-36z m275 147c-2 0-4-1-6-1-18 0-33 12-36 30l-13 62h-675l-12-62c-4-20-24-33-43-30s-33 23-30 43l18 92c3 18 18 30 36 30h736c18 0 33-12 36-30l18-92c4-19-9-37-29-42z" horiz-adv-x="1000" />

<glyph glyph-name="branch" unicode="&#xe82a;" d="M730 136c0 18-10 173-209 246-168 61-173 176-173 187v29c38 16 61 51 61 93 0 55-46 100-101 100s-99-45-99-100c0-42 27-77 65-93v-462c-38-16-64-51-64-93 0-55 43-100 99-100 55 0 101 45 101 100 0 42-23 77-60 93v267c28-34 78-67 146-91 147-54 157-160 158-176-36-16-63-51-63-93 0-55 45-100 100-100s100 45 100 100c-1 42-25 77-61 93z m-467-93c0 25 19 43 44 43s44-19 44-43c0-24-20-42-44-42s-44 18-44 42z m87 647c0-25-20-43-44-43s-44 20-44 43c0 24 19 42 44 42 25 2 44-18 44-42z m384-647c0-24-20-42-44-42-24 0-44 19-44 42 0 25 20 43 44 43 24 0 44-19 44-43z" horiz-adv-x="1000" />

<glyph glyph-name="briefcase" unicode="&#xe82b;" d="M912 579c-6 6-16 8-26 8h-194v110c0 20-18 37-38 37h-308c-20 0-38-17-38-37v-110h-194c-19 0-36-12-36-33v-518c0-20 17-37 36-37h772c20 0 36 17 36 37v517c0 10-3 18-10 26z m-532 81h239v-74h-239v74z m468-146v-193h-256v13c0 15-14 23-29 23h-124c-16 0-30-8-30-23v-14h-257v194h696z m-312-211v-19h-73v19h73z m-384-230v192h257v-8c0-16 14-28 30-28h124c15 0 29 12 29 28v8h258v-192h-698z" horiz-adv-x="1000" />

<glyph glyph-name="bright" unicode="&#xe82c;" d="M503 539c-21 0-37 17-37 37v160c0 21 18 37 37 37 21 0 38-16 38-37v-161c0-19-17-36-38-36z m-111-36c17 12 20 35 8 51l-94 130c-13 17-36 20-52 8-17-12-20-35-8-52l95-130c7-9 18-15 29-15 8 0 16 2 22 8z m-68-95c7 20-4 41-24 48l-153 49c-19 7-40-4-47-24-7-20 4-41 24-47l153-50c3-1 8-2 11-2 16 1 31 11 36 26z m-176-213l153 50c20 6 31 27 24 47-6 20-27 29-47 24l-153-49c-19-7-30-28-24-48 6-15 20-25 35-25 5 0 8 0 12 1z m159-179l94 130c12 16 9 39-8 51-16 12-39 9-51-7l-95-130c-12-17-8-40 8-52 7-4 14-6 22-6 11-1 22 4 30 14z m234-52v161c0 21-17 37-38 37-21 0-37-16-37-37v-161c0-21 16-37 37-37 21 0 38 16 38 37z m212 44c16 12 20 35 7 52l-94 130c-12 16-35 19-52 7-16-12-19-35-7-51l94-130c8-10 19-15 30-15 8 0 15 2 22 7z m154 211c6 20-5 41-25 48l-152 49c-20 7-41-4-48-24-6-20 5-41 25-47l152-50c4-1 8-2 11-2 17 1 31 11 37 26z m-177 165l152 50c20 6 31 27 25 47-7 20-28 29-48 24l-152-49c-20-7-31-28-25-48 6-15 20-25 36-25 4 0 8 0 12 1z m-63 126l95 130c12 17 8 40-8 52-17 12-40 9-52-8l-94-130c-12-16-9-39 7-51 7-5 15-7 22-7 11-1 22 5 30 14z" horiz-adv-x="1000" />

<glyph glyph-name="brightness-low" unicode="&#xe82d;" d="M500 557c-104 0-190-86-190-190s86-191 190-191 190 86 190 191-86 190-190 190z m0-293c-56 0-102 46-102 103s46 102 102 102 102-46 102-102-46-103-102-103z m-44 404v39c0 24 20 44 44 44s44-20 44-44v-39c0-25-20-44-44-44s-44 19-44 44z m429-301c0-25-20-44-44-44h-40c-24 0-44 19-44 44s20 43 44 43h40c24 0 44-19 44-43z m-341-302v-39c0-24-20-44-44-44s-44 20-44 44v39c0 25 20 44 44 44s44-19 44-44z m-345 258h-40c-24 0-44 19-44 44s20 43 44 43h40c24 0 44-19 44-43s-20-44-44-44z m482 225c-17 17-17 45 0 62l28 28c17 18 45 18 62 0s18-45 0-63l-27-27c-9-9-20-13-31-13-11 1-23 5-32 13z m90-391c18-18 18-45 0-63-8-9-19-13-30-13s-22 4-31 13l-29 29c-17 17-17 45 0 62 18 18 45 18 63 0l27-28z m-452 28c17-17 17-45 0-62l-28-28c-9-9-20-13-31-13s-21 4-30 13c-18 18-18 45 0 63l27 27c17 17 44 17 62 0z m-90 391c-18 18-18 45 0 63 17 18 45 18 62 0l28-27c17-18 17-45 0-63-9-9-20-13-31-13s-22 4-31 13l-28 27z" horiz-adv-x="1000" />

<glyph glyph-name="brightness" unicode="&#xe82e;" d="M499 572c-113 0-204-91-204-204s91-205 204-205 204 91 204 205-91 204-204 204z m0-335c-73 0-131 58-131 131s58 130 131 130 131-58 131-130-59-131-131-131z m-36 441v75c0 20 16 37 36 37s36-17 36-37v-75c0-20-16-37-36-37-20-1-36 16-36 37z m458-310c0-20-17-37-36-37h-76c-20 0-36 17-36 37s16 36 36 36h76c19 0 36-17 36-36z m-385-310v-76c0-20-16-36-36-36s-36 16-36 36v76c0 20 16 36 36 36 20 0 36-15 36-36z m-347 272h-76c-20 0-36 17-36 37s16 36 36 36h76c20 0 36-17 36-36 1-20-15-37-36-37z m503 230c-14 14-14 37 0 52l54 53c14 15 38 15 52 0 14-14 14-37 0-51l-54-54c-8-8-16-11-26-11-9 1-19 4-26 11z m106-440c14-14 14-37 0-51-8-8-17-11-27-11s-18 3-26 11l-53 54c-14 14-14 37 0 51 15 15 38 15 52 0l54-54z m-491 54c14-14 14-37 0-51l-54-54c-8-8-17-11-27-11s-18 3-26 11c-14 14-14 37 0 51l54 54c14 15 38 15 53 0z m-106 440c-14 14-14 37 0 51s38 15 52 0l54-53c14-15 14-38 0-52-8-8-17-11-27-11s-18 3-26 11l-53 54z" horiz-adv-x="1000" />

<glyph glyph-name="browser-upload" unicode="&#xe82f;" d="M1611-13c76 0 139 63 139 140 0 77-62 140-139 140-76 0-138-63-138-140 0-77 62-140 138-140z m259-230c-33 33-108 70-171 92l-69-59c-11-9-28-9-38 0l-69 59c-63-22-137-58-171-92m522-3c-1 1-3 1-3 3m-1334 584l2-377c0-20-17-37-37-37 0 0 0 0 0 0-20 0-36 16-36 36l-1 378-107-106c-14-15-37-15-51 0-15 14-15 37 0 51l169 168c14 15 37 15 52 0l169-168c14-14 14-37 0-51-8-8-17-11-27-11-10 0-18 3-26 11l-107 106z m386 396v-613c0-20-16-40-36-40h-227c-19 0-36 17-36 36s17 37 36 37h190v395h-699v-395h192c20 0 36-17 36-37s-16-36-36-36h-230c-20-1-36 19-36 39v614c0 20 16 36 36 36h773c21 0 37-16 37-36z m-478-120h92v83h-92v-83z m-55 83h-92v-83h92v83z m-239-83h92v83h-92v-83z m699 0v83h-258v-83h258z" horiz-adv-x="1000" />

<glyph glyph-name="browser" unicode="&#xe830;" d="M1611-13c76 0 139 63 139 140 0 77-62 140-139 140-76 0-138-63-138-140 0-77 62-140 138-140z m259-230c-33 33-108 70-171 92l-69-59c-11-9-28-9-38 0l-69 59c-63-22-137-58-171-92m522-3c-1 1-3 1-3 3m-947 902c0 21-16 37-37 37h-773c-21 0-37-16-37-37v-608c0-21 16-37 37-37h774c21 0 37 16 37 37v608z m-73-119h-259v83h259v-83z m-553 0v83h92v-83h-92z m147 83h92v-83h-92v83z m-202 0v-83h-92v83h92z m-92-534v386h700v-386h-700z" horiz-adv-x="1000" />

<glyph glyph-name="bulb" unicode="&#xe831;" d="M500 790c-150 0-276-126-276-280 0-93 38-169 110-219v-89c0-10 6-20 13-28 7-6 17-10 26-10 1 0 2 0 3 0l253 21c18 1 35 18 35 36v70c65 46 110 127 110 219 1 154-123 280-274 280z m110-445c-12-7-18-19-18-33v-56l-183-15v71c0 13-6 25-17 31-63 38-93 93-93 167 0 114 90 206 201 206s202-92 202-206c-1-72-35-135-92-165z m52-238c1-20-14-37-34-39l-251-19c-1 0-2 0-2 0-19 0-35 14-36 34-2 20 13 37 34 40l250 18c20 1 37-14 39-34z m-81-116c1-20-13-39-34-40l-91-7c-1 0-2 0-3 0-19 0-35 15-36 35-2 19 13 38 34 39l91 7c21 1 38-13 39-34z m65 521c-1-17-15-29-32-29-1 0-2 0-3 0-18 2-31 18-29 35 6 53-40 72-46 74-16 6-25 24-18 40 5 17 24 26 40 20 33-12 96-57 88-140z" horiz-adv-x="1000" />

<glyph glyph-name="calendar" unicode="&#xe832;" d="M279 565v118c0 25 21 46 46 46s46-21 46-46v-118c0-25-20-46-46-46s-46 21-46 46z m396-46c25 0 46 21 46 46v118c0 25-21 46-46 46-25 0-46-21-46-46v-118c0-25 21-46 46-46z m248 106v-622c0-20-16-37-36-37h-774c-20-1-36 16-36 37v622c0 20 16 40 36 40h86c20 0 36-16 36-36s-16-36-36-36h-49v-156h698v154h-49c-20 0-36 16-36 36s16 36 36 36h86c22 1 38-18 38-38z m-73-586v332h-699v-331h699z m-408 552h116c20 0 37 16 37 36s-17 36-37 36h-116c-20 0-36-16-36-36s16-36 36-36z" horiz-adv-x="1000" />

<glyph glyph-name="call" unicode="&#xe833;" d="M899 665c-1 2-1 2-2 3l-101 88c-15 13-33 19-54 17-19-1-36-10-49-22-1-1-2-2-3-3l-99-125c-26-28-25-72 2-99 3-3 4-4 6-5l51-34c-5-17-31-68-124-161-92-93-144-119-161-123l-34 50c-1 2-3 5-5 6-27 27-70 27-98 2l-126-99c-1-1-2-2-3-3-29-29-31-76-4-103l87-101c2-1 2-1 3-2 17-18 44-23 71-23 52 0 111 21 142 33 59 23 178 80 294 197 88 85 158 190 198 293 19 49 58 165 9 214z m-258-456c-175-173-370-221-404-204l-84 98 0 0 123 97 33-50c1-1 1-2 2-3 11-15 28-22 46-23s74-5 223 146c38 37 150 149 146 223-1 19-8 35-23 46-1 1-2 1-3 2l-49 33 96 123 0 0 98-85c17-33-31-228-204-403z" horiz-adv-x="1000" />

<glyph glyph-name="camcorder" unicode="&#xe834;" d="M902 592c-12 6-29 4-40-3l-151-111v82c0 20-12 36-33 36h-564c-19 0-36-16-36-36v-386c0-20 17-36 36-36h564c20 0 33 16 33 36v83l151-111c6-5 15-8 23-8 5 0 12 1 16 4 12 7 21 19 21 33v385c0 13-8 26-20 32z m-265-382h-486v313h486v-313z m213 37l-129 98v44l129 96c0 0 0-238 0-238z" horiz-adv-x="1000" />

<glyph glyph-name="camera" unicode="&#xe835;" d="M498 524c-116 0-210-96-210-214s94-213 210-213 210 96 210 213-94 214-210 214z m0-352c-76 0-136 63-136 140s61 139 136 139 137-62 137-139-61-140-137-140z m384 362h-140l-40 146c-4 16-18 27-35 27h-338c-17 0-31-12-36-27l-39-146h-141c-20 0-36-16-36-36v-468c0-20 16-36 36-36h769c20 0 37 16 37 36v467c1 21-16 37-37 37z m-36-467h-695v393h131c17 0 31 12 36 27l39 147h283l39-147c5-16 19-27 35-27h132v-393z" horiz-adv-x="1000" />

<glyph glyph-name="cap-graduation" unicode="&#xe836;" d="M901 450l-386 230c-9 4-20 4-30 0l-386-230c-13-5-21-19-22-32 0-14 9-27 22-33l33-16v-129c0-12 10-23 23-23 13 0 23 10 23 23v105l55-30v-156c0-7 2-12 6-18 3-5 87-131 256-131 173 0 253 126 257 131 3 6 5 11 5 17v152l146 74c12 7 20 20 20 33 0 14-9 28-22 33z m-208-281c-18-22-80-94-197-94-115 0-179 72-198 95v113l186-94c5-3 11-5 16-5 6 0 12 1 18 5l175 89v-109z m-193 93l-301 153 301 191 301-191-301-153z m-322-76c7-6 11-16 11-26 0-10-4-19-11-26-7-7-16-11-26-11s-19 4-27 11c-6 6-11 16-11 26 0 10 5 19 11 26 7 7 17 11 27 11s19-4 26-11z" horiz-adv-x="1000" />

<glyph glyph-name="card" unicode="&#xe837;" d="M922 574c0 38-31 68-68 68h-709c-37 0-68-30-68-68v-415c0-38 31-68 68-68h710c37 0 68 30 68 68l-1 415 0 0z m-74-5v-65h-697v65h697z m-697-405v230h697v-230h-697z m629 120c0-20-16-36-36-36h-175c-19 0-36 16-36 36s17 36 36 36h175c20 0 36-16 36-36z" horiz-adv-x="1000" />

<glyph glyph-name="cart" unicode="&#xe838;" d="M920 549l-98-310c-7-22-27-36-49-36h-381c-22 0-42 13-50 34l-144 388h-84c-21 0-37 16-37 36s16 36 36 36h109c15 0 29-11 34-24l151-397h349l78 248h-432c-20 0-36 16-36 36s16 36 36 36h483c12 0 23-6 29-15 7-9 9-21 6-32z m-509-396c-15 0-31-6-42-17s-17-27-17-42 6-31 17-42 27-17 42-17c15 0 31 6 42 17s17 27 17 42-6 31-17 42-27 17-42 17z m330 0c-16 0-31-6-42-17-11-11-18-27-18-42s7-31 18-42c11-11 26-17 42-17s30 6 41 17 18 27 18 42-7 31-18 42c-11 11-26 17-41 17z" horiz-adv-x="1000" />

<glyph glyph-name="chart-area" unicode="&#xe839;" d="M889 78h-1v441c0 9-3 17-10 23l-34 34c-13 14-34 14-46 0l-146-146-45 45c-14 14-34 14-47 0l-112-113-45 45c-13 13-34 13-46 0l-112-112-35 35v427c0 17-14 33-33 33-18 0-33-15-33-33v-679h-34c-18 0-33-15-33-33 0-18 14-33 33-33h35v-36c0-17 14-33 33-33 18 0 33 15 33 33v36h679c18 0 33 14 33 33-1 18-15 33-34 33z m-67 428v-428h-612v159l12-12c12-12 34-12 46 0l112 112 45-45c12-12 34-12 46 0l113 112 45-45c12-12 34-12 46 0l146 146 1 1z" horiz-adv-x="1000" />

<glyph glyph-name="chart-bar" unicode="&#xe83a;" d="M889 43l0 0-1 680c0 17-14 33-33 33h-169c-18 0-33-15-33-33v-680h-36v510c0 18-15 33-33 33h-170c-17 0-33-14-33-33v-510h-36v340c0 18-14 33-33 33h-168c-18 0-33-14-33-33v-340h-1c0 0 0 0 0 0-9 0-17-3-23-9-7-6-10-15-10-24 0-17 14-33 33-33h779c18 0 33 15 33 33s-14 33-33 33z m-712 0v308h104v-308h-104z m375 477v-477h-105v477h105z m167-477v647h104v-647h-104z" horiz-adv-x="1000" />

<glyph glyph-name="chart-donut" unicode="&#xe83b;" d="M890 367h-205c-16 0-30-11-32-28-5-22-12-42-24-59-9-13-8-31 3-42l145-145c7-7 14-10 23-10l1 0c9 0 18 4 24 12 56 67 90 148 98 235 1 9-2 19-9 26-6 6-15 11-24 11z m-37-66c-9-49-29-95-56-134l-101 101c5 11 10 22 14 34h143z m-245-86c-11 11-27 8-42 3-33-9-34-5-65-5-84 0-154 69-154 154 0 74 53 138 127 151 15 3 27 17 27 32v207c0 8-4 17-11 24-6 6-16 10-25 9-218-19-388-205-388-422 0-234 190-425 424-425 99 0 175 14 251 77 6 6 11 15 12 25 0 8-4 18-10 24l-146 146z m72-166c-59-41-107-41-179-41-198 0-358 161-358 359 0 171 124 319 291 351v-142c-91-28-153-113-153-209 0-121 99-220 220-220 35 0 44-1 79 2l100-100z m-118 469c62-15 77-31 90-90 3-15 16-27 32-27h206c9 0 18 4 24 11 7 6 9 15 9 25-17 205-147 334-352 353-8 1-18-3-25-9-6-7-11-16-11-24v-206c0-16 11-28 27-33z m148-50c-26 68-44 84-110 110v141c144-27 224-107 252-251h-142z" horiz-adv-x="1000" />

<glyph glyph-name="chart-line" unicode="&#xe83c;" d="M890 78h-679v54l153 153c16-4 33-3 48 5l107-72c0-2 0-3 0-4 0-38 29-67 67-67s67 29 67 67c0 4 0 9-1 13l149 129c8-3 16-5 23-5 38 0 67 30 67 67 0 38-29 67-67 67s-67-29-67-67c0-4 0-9 1-13l-150-129c-18 7-37 6-53-3l-107 72c0 2 0 3 0 4 0 37-29 67-67 67-37 0-67-30-67-67 0-6 1-12 3-18l-107-106v80l164 233c21-2 40 5 55 21l91-23c8-29 34-50 64-50 37 0 67 30 67 67 0 0 0 0 0 0l136 78c10-6 22-10 34-10 37 0 67 30 67 68 0 37-30 67-67 67s-67-30-67-67c0 0 0 0 0 0l-136-79c-10 7-22 10-34 10-19 0-37-7-49-20l-91 23c-8 28-34 49-64 49-37 0-67-30-67-67 0-10 2-20 7-29l-110-156v337c0 17-14 33-33 33-18 0-33-15-33-33v-681h-34c-18 0-33-14-33-33 0-17 14-33 33-33h35v-35c0-17 14-33 33-33 18 0 33 15 33 33v35h679c18 0 33 15 33 33 0 19-14 35-33 35z m-510 272c0 0 0 1 0 0 1 1 2 1 2 0l0-1c-1 0-1 0-2 1 0-1 0-1 0 0z m204-137l0 0c1 1 1 1 1 1 0 0 0 0 0-1l0 0c1 0 0 0-1 0z m237 204c0 1 2 1 2 0 0 0 0-1-2 0 1 0 1 0 0 0l0 0z m-440 186c-1 0-1 0-1 1 0 1 0 1 1 1 0 0 0 0 1 0l-1-2c0 1 0 0 0 0z m204-51l0 0c0 1 0 1 0 1 0 0 0 0 1 0l0 0c0 0 0-1 0-1 0 0-1 0-1 0z m236 138c0 1 2 0 2 0 0 0 0-1-1-1l-1 1c1-1 1 0 0 0z" horiz-adv-x="1000" />

<glyph glyph-name="chart-pie" unicode="&#xe83d;" d="M387 431h-278c-18 0-32 15-32 32 0 172 138 310 310 310 17 0 32-14 32-32v-277c0-18-15-33-32-33z m-243 65h210v210c-109-14-196-101-210-210z m385-569c-218 0-395 169-395 378 0 21 17 37 37 37h338v338c0 21 16 37 37 37 204-1 377-181 377-396 0-217-177-394-394-394z m-319 341c20-151 155-267 319-267 177 0 321 144 321 320 0 161-119 298-268 319v-335c0-21-16-37-37-37h-335z" horiz-adv-x="1000" />

<glyph glyph-name="chart-stack" unicode="&#xe83e;" d="M891 400l0 0-1 85c0 19-15 33-33 33h-169c-19 0-33-15-33-33v-85h-35v323c0 18-16 33-33 33h-170c-19 0-33-16-33-33v-323h-36v153c0 19-15 33-33 33h-170c-19 0-33-15-33-33v-153h-1c-19 0-33-16-33-33 0-19 15-33 33-33h1v-324c0-18 16-33 33-33h169c19 0 33 16 33 33v324h35v-188c0-19 16-33 33-33h170c18 0 33 15 33 33v188h35v-324c0-18 15-33 33-33h171c19 0 33 16 33 33v324h1c19 0 33 15 33 33 1 18-14 33-33 33z m-170 0v52h103v-52h-103z m0-357v291h103v-291h-103z m-168 291v-154h-103v154h103z m0 356v-290h-103v290h103z m-375-290v120h103v-120h-103z m0-357v291h103v-291h-103z" horiz-adv-x="1000" />

<glyph glyph-name="chat" unicode="&#xe83f;" d="M887 718h-773c-21 0-37-16-37-37v-471c0-20 16-36 37-36h433v-156c0-15 12-30 27-34 4-1 10-2 13-2 11 0 22 4 28 13l153 180h120c21 0 37 16 37 37v469c-1 21-17 37-38 37z m-37-469h-100c-11 0-24-6-30-13l-100-117v93c0 20-12 37-33 37h-436v396h699v-396z m-602 267c0 21 17 36 37 36h267c21 0 36-16 36-36s-17-37-36-37h-266c-21 0-38 16-38 37z m405-29c-7 7-11 17-11 27 0 10 4 20 11 26 6 7 16 11 26 11 10 0 20-4 27-11 6-6 11-16 11-26 0-10-5-19-11-27-7-6-17-11-27-11-10 0-20 5-26 11z" horiz-adv-x="1000" />

<glyph glyph-name="chats" unicode="&#xe840;" d="M886 565h-358v85c0 15-20 35-36 35h-388c-15 0-27-20-27-35v-235c0-15 12-33 27-33h56l74-80c6-7 13-8 21-8 3 0 4 1 8 2 11 5 16 16 16 27v58h55v-171c0-20 21-40 42-40h253v-112c0-16 7-29 22-34 4-3 8-3 13-3 10 0 18 3 26 10l138 140h58c21 0 37 21 37 41v308c0 21-16 45-37 45z m-631-128c-15 0-31-7-31-22v-19l-32 34c-5 6-11 7-19 7h-41v193h331v-65h-88c-21 0-42-25-42-45v-83h-78z m595-194h-39c-10 0-19-2-25-8l-84-85v62c0 20-18 33-39 33h-255v247h442v-249z m-388 166c0 16 12 28 27 28h176c15 0 27-12 27-28 0-15-12-27-27-27h-176c-15 0-27 12-27 27z m267-18c-6 5-8 12-8 19 0 8 3 15 8 20 10 10 28 10 39 0 6-5 8-12 8-20 0-7-3-14-8-19-5-6-12-8-20-8-7-1-14 2-19 8z" horiz-adv-x="1000" />

<glyph glyph-name="check" unicode="&#xe841;" d="M367 59c-13 0-25 4-35 14l-219 219c-20 20-20 50 0 70 20 20 51 20 71 0l184-183 439 437c19 20 50 20 70 0 20-20 20-51 0-70l-474-473c-11-10-23-14-36-14z" horiz-adv-x="1000" />

<glyph glyph-name="circle-filled" unicode="&#xe842;" d="M500 773c-233 0-423-190-423-423 0-233 190-423 423-423 233 0 423 190 423 423 0 233-190 423-423 423z" horiz-adv-x="1000" />

<glyph glyph-name="circle" unicode="&#xe843;" d="M500-73c-233 0-423 190-423 423 0 233 190 423 423 423 233 0 423-190 423-423 0-233-190-423-423-423z m0 747c-179 0-324-145-324-324 0-179 145-324 324-324 179 0 324 145 324 324 0 179-145 324-324 324z" horiz-adv-x="1000" />

<glyph glyph-name="clipboard" unicode="&#xe844;" d="M785 707h-74-9-55l-14 39c-10 26-35 44-64 44h-130c-29 0-54-18-64-44l-16-39h-62-9-74c-21 0-37-18-37-38v-689c0-21 16-38 37-38h572c21 0 37 17 37 38v689c-1 20-17 38-38 38z m-399-73c15 0 29 8 34 23l22 59h123l22-59c5-15 19-23 34-23h30l-27-53c-4-8-13-12-22-12h-199c-8 0-16 4-21 11l-30 54h34z m362-618h-497v618h15l52-93c0 0 1 0 1-1 18-28 49-45 83-45h200c35 0 68 18 86 48 0 2 1 2 1 3l44 88h14l1-618 0 0z" horiz-adv-x="1000" />

<glyph glyph-name="clock" unicode="&#xe845;" d="M499 790c-233 0-422-189-422-422s189-422 422-422 422 189 422 422-189 422-422 422z m0-772c-192 0-348 156-348 349s156 348 348 348 348-156 348-348-156-349-348-349z m141 262c14-15 14-38 0-52-8-8-17-11-27-11s-18 3-26 11l-113 113c-7 7-11 17-11 27v218c0 20 16 37 36 37s36-17 36-37v-203l105-103z" horiz-adv-x="1000" />

<glyph glyph-name="cloud-download" unicode="&#xe846;" d="M915 364c-5-79-67-163-186-163-55 0-84 0-84 0-20 0-36 17-36 37 0 20 16 37 36 37 0 0 0 0 0 0 0 0 29-1 84-1 73 0 110 47 113 95 3 48-28 102-103 113-10 1-20 8-26 15-5 9-7 19-5 30 10 42 0 75-28 90-23 13-60 13-91-17-9-8-20-13-32-10-11 2-21 8-26 18-52 97-132 102-185 77-50-24-91-83-59-159 4-10 3-21-1-30-5-10-12-16-22-20-107-33-105-103-101-124 5-39 37-79 85-79l112 0c20 0 37-16 37-36 0-20-17-36-37-36 0 0 0 0 0 0l-112 0c-79 0-145 58-158 140-10 64 17 149 118 194-23 99 33 182 107 217 77 37 186 27 259-73 45 25 97 26 143 2 37-21 72-66 69-134 95-28 135-110 129-183z m-287-222l-89-90-2 334c0 20-16 38-36 38 0 0 0 0 0 0-20 0-36-18-36-38l1-333-89 89c-14 15-37 15-52 0-14-14-14-37 0-51l151-153c6-7 16-11 26-11 10 0 19 4 27 11l151 153c15 14 15 37 0 51-14 15-38 15-52 0z" horiz-adv-x="1000" />

<glyph glyph-name="cloud-upload" unicode="&#xe847;" d="M923 300c-5-81-68-168-191-168-56 0-86 0-86 0-20 0-36 16-36 37 0 20 16 35 36 35 0 0 0 0 0 0 0 0 30 1 86 1 76 0 114 52 118 100 3 51-29 107-107 118-10 1-20 7-25 15-6 9-8 19-6 30 10 42-1 77-30 93-24 13-62 13-93-18-9-7-20-12-32-9-11 2-21 8-26 18-53 100-135 106-190 79-53-25-95-86-62-164 5-10 3-21-1-30-4-10-12-17-22-20-110-34-108-108-104-130 6-40 38-81 88-81l114-1c20 0 36-18 36-38 0-20-16-39-36-39 0 0 0 0 0 0l-114 2c-81 0-149 63-161 146-10 65 18 152 120 197-24 101 33 187 110 223 79 38 190 27 264-76 46 27 100 28 145 3 38-22 73-69 70-138 100-27 140-112 135-185z m-293-30c7-8 16-11 26-11 10 0 19 3 26 11 15 14 15 37 0 51l-156 157c-6 6-16 11-26 11-10 0-19-5-26-11l-155-157c-15-14-15-37 0-51 14-14 37-14 51 0l94 93 1-344c0-20 16-36 36-36 0 0 0 0 0 0 20 0 36 16 36 37l-1 343 94-93z" horiz-adv-x="1000" />

<glyph glyph-name="cloud" unicode="&#xe848;" d="M732 50c-184 0-487 1-492 1-81 0-149 61-161 145-10 65 18 153 120 199-24 102 34 188 111 224 48 23 102 27 152 9 44-14 81-44 111-86 46 27 100 28 145 3 38-22 74-69 70-139 99-30 140-115 134-189-5-80-67-167-190-167z m-334 515c-21 0-40-4-57-13-53-25-96-88-63-166 4-10 3-21-1-29-4-10-12-17-22-20-110-34-108-109-104-131 6-41 38-82 88-82 0 0 0 0 0 0 3 0 307-1 492-1 76 0 114 49 117 98 4 51-27 108-106 119-10 1-20 8-25 16-6 8-8 18-6 28 10 44-1 78-30 95-24 13-61 13-93-18-9-8-20-12-32-10-11 2-22 9-26 19-35 71-86 95-132 95z" horiz-adv-x="1000" />

<glyph glyph-name="code" unicode="&#xe849;" d="M628 57c-10 0-21 4-29 12-15 15-14 40 1 56l226 217-225 218c-15 15-16 40-1 56 15 15 40 16 56 1l256-246c8-8 12-18 12-29s-4-21-12-28l-257-246c-8-8-18-11-27-11z m-228 12c15 15 14 40-1 56l-226 217 226 218c15 15 16 40 1 56-15 15-40 16-56 1l-255-247c-8-7-12-18-12-28s4-21 12-28l256-246c8-8 18-11 28-11 9 0 19 4 27 12z m40-95l0 0c-9 1-16 10-14 19l116 725c1 9 10 16 18 13l0 0c9-1 16-10 14-18l-116-726c-1-8-10-15-18-13z" horiz-adv-x="1000" />

<glyph glyph-name="compass" unicode="&#xe84a;" d="M500 773c-233 0-423-190-423-423s190-423 423-423 423 190 423 423-190 423-423 423z m0-73c192 0 350-158 350-350 0-49-10-96-29-138l-207 102c14 42 4 88-29 121l0 0c-33 33-81 43-122 29l-75 151c-7 13-23 20-37 12-14-7-20-23-12-37l76-155c0 0 0 0-1 0 0 0-1-1-1-1l-209 103c63 98 172 163 296 163z m-40-310c11 11 26 16 40 16s29-5 40-16c22-22 22-58 0-80-22-21-58-21-80 0-21 22-21 58 0 80z m228-334l-48 96c-7 13-23 19-38 12-13-6-18-23-12-37l50-99c-43-19-90-29-140-29-192 2-349 159-349 351 0 50 9 96 28 139l207-103c-13-41-4-88 29-121 24-23 54-35 85-35s62 12 85 35c0 0 1 2 1 2l209-104c-28-44-64-80-107-107z m-82 170c5-6 9-14 9-23 0-9-3-17-9-23s-15-10-24-10c-8 0-16 3-23 10-5 5-9 14-9 23s3 16 9 23c12 12 34 12 47 0z" horiz-adv-x="1000" />

<glyph glyph-name="contract" unicode="&#xe84b;" d="M908-7c15-16 15-40 0-54-8-8-18-11-28-11-10 0-20 3-27 11l-209 208v-99c0-21-18-39-38-39-21 0-39 18-39 39v191c0 10 4 20 12 28 8 7 18 11 28 11h0l192 0c21 0 38-18 38-39 0-21-17-38-38-38 0 0 0 0 0 0l-99 0 208-208z m-302 424h192c21 0 38 18 38 39 0 20-17 38-38 38h-99l213 214c16 16 16 40 0 54-15 16-39 16-54 0l-214-214v99c0 21-18 39-38 39h0c-21 0-39-17-39-38l0-192c0-10 4-20 11-27 8-8 18-12 28-12z m-213 267c-20 0-37-17-37-38v-99l-213 212c-14 14-40 14-55 0-15-16-15-39 0-53l212-211h-98v-1c-20 0-39-18-39-40 0-20 17-38 38-38l192 0v0c10 0 20 4 27 11 8 8 11 16 11 27l0 193c1 20-16 37-38 37z m-2-401h-192c-21 0-39-18-39-38 0-21 18-39 39-39h99l-209-212c-15-15-15-41 0-55 8-8 18-12 28-12 9 0 20 3 28 11l211 210v-99c0-21 15-35 37-35h-1c21 0 39 15 39 37l0 191c0 10-5 21-11 29-9 7-19 12-29 12z" horiz-adv-x="1000" />

<glyph glyph-name="contrast" unicode="&#xe84c;" d="M500 572c-113 0-204-91-204-204s91-205 204-205 204 91 204 205-91 204-204 204z m-131-204c0 72 59 130 131 130l0 0v-261l0 0c-72 0-131 58-131 131z m95 310v75c0 20 16 37 36 37s36-17 36-37v-75c0-20-16-37-36-37-20-1-36 16-36 37z m458-310c0-20-16-37-36-37h-76c-20 0-36 17-36 37s16 36 36 36h76c20 0 36-17 36-36z m-386-310v-76c0-20-16-36-36-36s-36 16-36 36v76c0 20 16 36 36 36 20 0 36-15 36-36z m-346 272h-76c-19 0-36 17-36 37s17 36 36 36h76c20 0 36-17 36-36 2-20-15-37-36-37z m503 230c-14 14-14 37 0 52l54 53c15 15 38 15 52 0 14-14 14-37 0-51l-54-54c-8-8-16-11-26-11-9 1-19 4-26 11z m106-440c14-14 14-37 0-51-8-8-17-11-26-11s-19 3-27 11l-54 54c-14 14-14 37 0 51 15 15 38 15 52 0l55-54z m-492 54c14-14 14-37 0-51l-54-54c-8-8-17-11-27-11s-18 3-26 11c-14 14-14 37 0 51l54 54c15 15 38 15 53 0z m-106 440c-14 14-14 37 0 51s38 15 52 0l54-53c14-15 14-38 0-52-8-8-17-11-27-11s-18 3-26 11l-53 54z" horiz-adv-x="1000" />

<glyph glyph-name="copy" unicode="&#xe84d;" d="M886 143h-555c-21 0-38 17-38 38v555c0 21 17 37 38 37h555c21 0 37-16 37-37v-555c0-21-16-38-37-38z m-518 75h482v480h-482v-480z m320-247v98c0 15-12 27-28 27-15 0-27-12-27-27v-86h-500v499h86c15 0 27 12 27 27 0 16-12 28-27 28h-98c-24 0-44-20-44-44v-522c0-24 20-44 44-44h523c24 0 44 20 44 44z" horiz-adv-x="1000" />

<glyph glyph-name="crop" unicode="&#xe84e;" d="M909 696c15 14 15 40 0 54-14 15-40 14-54 0l-115-112h-482v69c0 21-17 39-38 39s-38-17-38-39v-70h-67c-20 0-38-18-38-39s18-38 38-38h67v-478c0-1 2-2 2-2 0-1 0-4 1-5 0-1 1-2 1-3 0-1 1-2 1-3 0-1 1-2 2-4 1-1 1-2 2-3 1-1 2-2 4-3 1-1 1-1 1-2 0 0 0 0 0 0 1-3 3-4 5-5 1 0 1-1 2-1 3-1 4-2 6-3 1 0 2-1 3-1 1 0 2-1 3-1 3 0 5-1 8-1 0 0 0 0 0 0h497v-68c0-20 17-38 38-38s39 18 39 38v68h67c21 0 38 17 38 38s-17 38-38 38h-67v464l112 111z m-249-135l-402-388v388h402z m59-441h-402l402 392v-392z" horiz-adv-x="1000" />

<glyph glyph-name="crosshair" unicode="&#xe84f;" d="M501 773c0 0-1 0 0 0-1 0-1 0 0 0-1 0-1 0 0 0-234 0-424-190-424-423 0-233 189-423 422-423 0 0 0 0 0 0 0 0 0 0 0 0 0 0 0 0 0 0 234 0 424 190 424 423 0 233-189 423-422 423z m35-770v94c0 20-16 37-36 37s-36-17-36-37v-94c-166 17-294 147-311 311h94c20 0 37 16 37 36s-17 36-37 36h-94c17 164 145 294 311 311v-94c0-20 16-36 36-36s36 16 36 36v94c166-17 294-147 311-311h-94c-20 0-36-16-36-36s16-36 36-36h94c-16-164-145-295-311-311z" horiz-adv-x="1000" />

<glyph glyph-name="cutlery" unicode="&#xe850;" d="M837 50c15-14 15-37 0-52-7-7-16-11-26-11s-19 4-26 11l-292 292-287-292c-8-7-17-11-27-11-9 0-19 4-25 11-14 15-14 38 0 52l288 292-50 50-7-9c-23-23-55-36-88-36s-64 13-88 36l-121 121c-14 14-14 37 0 52 14 14 37 14 52 0l122-121c9-10 22-16 35-16s26 6 35 15l8 7-156 159c-15 14-15 37 0 51 14 14 37 14 51 0l157-157 9 9c20 20 20 51 0 71l-122 122c-14 14-14 38 0 52s38 14 52 0l122-121c48-48 48-126 0-175l-9-9 48-48 323 329c7 6 17 11 27 11s18-4 26-11c82-82 68-196-35-299l-123-125c-14-15-37-15-52 0s-14 37 0 51l124 124c75 75 73 131 58 165l-295-298 292-292z" horiz-adv-x="1000" />

<glyph glyph-name="database" unicode="&#xe851;" d="M824 625c0 96-162 148-324 148-161 0-324-52-324-148 0-1 0-1 0-2 0 0 0-2 0-2v-554c0-96 163-146 324-146 162 0 324 50 324 146v553c0 0 0 1 0 1 0 2 0 3 0 4z m-73-282c0-20-88-71-251-71-163 0-250 51-250 71v183c64-34 157-51 250-51 93 0 186 18 251 51v-183z m-251 357c165 0 251-53 251-75s-85-75-251-75-250 53-250 75 85 75 250 75z m0-705c-163 0-250 51-250 72v181c64-33 157-50 250-50 93 0 186 17 251 50v-181c0-21-88-72-251-72z m157 380v46c0 18 14 33 33 33 18 0 32-14 32-33v-45c0-17-14-33-32-33-19 0-33 15-33 32z" horiz-adv-x="1000" />

<glyph glyph-name="desktop" unicode="&#xe852;" d="M853 763h-706c-38 0-70-32-70-70v-484c0-38 32-74 70-74h233v-38l-70-56c-12-10-18-29-12-44 5-15 19-27 35-27h331c16 0 31 12 35 27 5 16 1 33-11 43l-69 57v38h233c38 0 70 36 70 74v484c0 38-31 70-69 70z m-286-709l22-20h-181l24 20c8 7 13 18 13 28v53h110v-53c0-10 4-21 12-28z m283 154h-699v482h697v-482h2z" horiz-adv-x="1000" />

<glyph glyph-name="diamond" unicode="&#xe853;" d="M913 530l-156 165c-6 8-16 12-26 12h-462c-10 0-19-4-26-12l-156-165c-13-14-13-37 1-51l387-475c6-7 16-11 26-11 10 0 19 4 27 11l384 476c14 13 14 36 1 50z m-584-52l68-287-199 287h131z m202 156l59-93h-180l59 93h62z m-31-551l0 2-103 393h206l-103-393 0-2z m171 395h131l-199-287 68 287z m135 63h-140l-59 93h107l92-93z m-520 93h107l-59-93h-139l91 93z" horiz-adv-x="1000" />

<glyph glyph-name="document" unicode="&#xe854;" d="M826 751c0 21-17 39-38 39h-577c-21 0-38-18-38-39v-769c0-21 17-39 38-39h577c21 0 38 18 38 39v769z m-76-731h-499v693h500v-693z m-409 255c0 19 15 34 34 34h113c19 0 34-15 34-34s-15-34-34-34h-113c-19 0-34 16-34 34z m5 154c0 19 16 34 34 34h229c19 0 34-15 34-34s-15-34-34-34h-229c-18 0-34 15-34 34z m0 144c0 19 16 34 34 34h229c19 0 34-15 34-34s-15-34-34-34h-229c-18 1-34 15-34 34z m286-277c7-6 10-15 10-24 0-9-3-18-10-24-7-7-15-10-24-10-9 0-18 3-24 10-7 6-10 15-10 24 0 9 3 18 10 24 13 13 35 13 48 0z" horiz-adv-x="1000" />

<glyph glyph-name="download" unicode="&#xe855;" d="M908 230v-256c0-26-21-47-48-47h-714c-26 0-47 21-47 47v256c0 27 21 48 47 48s47-21 47-48v-209h620v209c0 27 21 48 47 48 27 0 48-22 48-48z m-439-59c9-9 21-14 34-14 14 0 26 5 34 14l188 191c19 19 18 48-1 66-18 19-48 18-66-1l-106-109v407c0 26-21 47-48 47-26 0-47-21-47-47v-407l-106 109c-19 19-49 19-66 1-19-19-19-48-1-66l185-191z" horiz-adv-x="1000" />

<glyph glyph-name="dribbble-circle" unicode="&#xe856;" d="M498 394c-107-29-206-32-244-35 0-50 17-99 49-142 26 39 93 120 201 159-3 7-3 15-6 18z m-113 191c-56-32-103-84-120-145 35 0 110 7 198 25-35 53-64 98-78 120z m-26-417c43-29 88-43 138-43 28 0 56 3 84 14-6 29-21 92-46 166-107-38-161-109-176-137z m291 392c-43 35-96 53-152 53-11 0-25 0-35-4 17-25 46-70 78-124 59 29 91 57 109 75z m-152 230c-233 0-421-187-421-421s188-420 421-420 424 187 424 420-191 421-424 421z m0-739c-177 0-319 142-319 319s142 319 319 319 319-142 319-319-142-319-319-319z m113 276c21-64 35-117 39-145 42 35 70 81 84 134-17 3-49 11-88 11-11 0-21 0-35 0z m131 64c-3 43-18 84-43 119-18-20-60-56-124-84 3-7 6-18 11-25v-4c17 0 32 4 49 4 43-4 82-7 107-10z" horiz-adv-x="1000" />

<glyph glyph-name="dribbble-square" unicode="&#xe857;" d="M498 394c-107-29-206-32-244-35 0-50 17-99 49-142 26 39 93 120 201 159-3 7-3 14-6 18z m-139-226c43-29 88-43 138-43 28 0 56 3 84 14-6 29-21 92-46 166-107-38-161-110-176-137z m26 416c-56-32-103-84-120-145 35 0 110 7 198 25-35 53-64 99-78 120z m191-163c3-6 6-17 11-25v-3c17 0 32 3 49 3 43 0 82-3 107-6-3 42-18 84-43 119-22-24-60-59-124-88z m-499 369v-846h845v846h-845z m421-739c-177 0-319 142-319 319s142 319 319 319 319-142 319-319-142-319-319-319z m113 275c21-64 35-117 39-145 42 35 70 81 84 134-17 3-49 11-88 11-11 0-21 0-35 0z m39 234c-43 35-96 53-152 53-11 0-25 0-35-4 17-25 46-70 78-124 59 29 91 57 109 75z" horiz-adv-x="1000" />

<glyph glyph-name="dribbble" unicode="&#xe858;" d="M500-56c234 0 423 188 423 424s-189 422-423 422-423-188-423-423 188-423 423-423z m0 99c-67 0-132 21-185 58 21 35 88 127 235 184 35-99 57-184 63-224-39-13-74-18-113-18z m206 72c-7 39-26 110-53 191 14 0 28 3 46 3 53 0 96-6 121-14-19-70-57-134-114-180z m60 437c32-46 53-103 57-156-28 4-81 11-138 11-21 0-46 0-67-3v3c-4 11-11 21-15 32 85 39 138 85 163 113z m-266 139c75 0 142-26 199-72-21-21-64-63-142-95-39 71-78 132-103 163 13 4 32 4 46 4z m-153-40c18-28 61-89 104-159-114-29-214-32-263-35 24 84 80 155 159 194z m153-248c3-7 7-14 11-21-145-50-234-159-266-210-43 53-64 118-67 188 48-3 179 3 322 43z" horiz-adv-x="1000" />

<glyph glyph-name="dumble" unicode="&#xe859;" d="M797 597v-461c0-21-18-39-39-39s-38 18-38 39v192h-441v-192c0-21-17-39-38-39s-39 18-39 39v461c0 21 18 39 39 39s38-18 38-39v-192h442v192c0 21 18 39 38 39s38-18 38-39z m-682-57c-20 0-38-17-38-38v-272c0-21 18-38 38-38s39 17 39 38v273c0 21-18 37-39 37z m769 0c-21 0-39-17-39-38v-272c0-21 18-38 39-38s38 17 38 38v273c0 21-18 37-38 37z" horiz-adv-x="1000" />

<glyph glyph-name="edit" unicode="&#xe85a;" d="M871 700l-67 68c-5 5-13 8-20 8h0c-8 0-15-3-20-8l-393-398c-2-2-4-6-6-10l-44-112c-4-10-1-22 7-30 5-5 12-8 19-8 4 0 7 2 10 3l111 44c3 1 7 3 10 6l392 398c11 10 11 28 1 39z m-428-394l-45-17 17 46 369 373 27-28-368-374z m287 34v-378c0-21-19-37-40-37h-532c-21 0-37 16-37 37v712c0 21 16 36 37 36h389c21 0 38-16 38-37 0-21-17-37-38-37h-351v-637h458v341c0 21 16 38 37 38 21 0 39-18 39-38z" horiz-adv-x="1000" />

<glyph glyph-name="elipsis" unicode="&#xe85b;" d="M225 290c-19 0-40 8-55 23s-22 34-22 54c0 19 9 39 22 54 15 15 34 22 55 22 20 0 40-8 54-22 14-14 23-34 23-54 0-20-9-40-23-54-14-15-34-23-54-23z m329 23c14 14 23 34 23 54 0 19-9 39-23 54-14 15-34 22-54 22-20 0-41-8-55-22-14-14-22-34-22-54 0-20 9-40 22-54 14-15 34-23 55-23 20 0 40 8 54 23z m275 0c14 14 23 34 23 54 0 19-9 39-23 54-15 15-34 22-54 22s-41-8-55-22c-14-14-22-34-22-54 0-20 9-40 22-54 14-15 34-23 55-23 20 0 39 8 54 23z" horiz-adv-x="1000" />

<glyph glyph-name="enter" unicode="&#xe85c;" d="M408 269c20 0 36-17 36-37v-130h404v530h-403v-130c0-20-16-37-36-37s-36 17-36 37v168c0 20 14 36 35 36h479c20 0 36-16 36-36v-606c0-19-16-36-36-36h-480c-20 0-36 17-36 36v167c0 21 17 38 37 38z m266 125l-144 145c-8 8-17 11-27 11-8 0-18-3-26-11-14-14-14-37 0-52l81-82-445 1 0 0c-20 0-36-16-36-36s16-36 36-38l447-1-82-82c-14-14-14-37 0-52s37-14 52 0l144 145c14 15 14 38 0 52z" horiz-adv-x="1000" />

<glyph glyph-name="exit" unicode="&#xe85d;" d="M629 231v-168c0-20-15-36-36-36h-479c-19 0-36 16-36 36v607c0 20 17 36 36 36h479c20 0 36-16 36-36v-168c0-20-17-37-37-37s-36 17-36 37v130h-405v-532h404v131c0 20 16 37 36 37 21 1 38-16 38-37z m283 163l-144 145c-14 14-37 14-51 0-15-14-15-37 0-52l82-82-447-2c-20 0-37-17-37-38 0-19 17-36 37-36l0 0 445 1-82-82c-14-14-14-38 0-52 8-6 17-11 27-11s18 4 26 11l144 146c14 15 14 38 0 52z" horiz-adv-x="1000" />

<glyph glyph-name="expand" unicode="&#xe85e;" d="M923 735l0-193c0-21-17-38-38-38l0 0c-21 0-39 17-39 38v99l-223-223c-8-8-17-11-27-11-10 0-20 3-28 11-15 16-15 40 0 54l224 224h-99c-20 0-38 18-38 39-1 21 16 38 37 38h193c10 0 19-4 27-11 7-8 11-17 11-27z m-38-539c-21 0-39-17-39-38v-99l-220 217c-15 16-40 16-55 0-15-15-15-39 0-53l217-219h-100c0 0 0 0 0 0-21 0-38-18-38-39 0-21 17-38 38-38l192 0 0 0c10 0 22 4 30 11 8 8 13 16 13 27v193c0 21-17 38-38 38z m-511 82l-220-219v99c0 21-17 38-39 38h0c-20 0-38-17-38-38l0-193c0-10 4-19 11-27 8-8 16-11 27-11h193c21 0 38 17 38 38 0 21-17 39-38 39h-99l220 220c15 15 15 39 0 55-16 14-40 14-55-1z m-166 415l99 0h0c21 0 38 17 38 38s-16 39-37 39l-193 0h0c-9 0-19-5-27-11-7-8-11-18-11-28l0-192c0-21 18-38 38-38 21 0 39 17 39 38v99l222-222c8-8 17-11 27-11 10 0 20 3 28 11 15 15 15 40 0 54l-223 223z" horiz-adv-x="1000" />

<glyph glyph-name="export" unicode="&#xe85f;" d="M748 68v-47c0-20-17-31-37-31h-601c-21 0-33 11-33 31v455c0 21 13 39 33 39h108c21 0 37-17 37-37 0-21-16-38-37-38h-67v-378h524v5c0 20 16 37 36 37 21 1 37-15 37-36z m164 344l-228-233c-11-11-27-15-41-9-14 5-23 20-23 34v100c-74 2-251-6-314-119-7-12-19-18-32-18-4 0-7 0-9 1-17 4-28 18-28 36 0 5 0 147 107 254 67 68 157 105 277 112v99c0 15 10 28 23 34 14 5 30 2 41-9l227-231c14-14 14-37 0-51z m-79 26l-140 142v-45c0-21-16-38-36-38-114 0-202-30-261-91-28-27-46-58-59-87 87 52 196 61 263 61 35 0 57-2 62-4 18-2 33-17 33-37v-45l138 144z" horiz-adv-x="1000" />

<glyph glyph-name="eye" unicode="&#xe860;" d="M917 370c-6 9-155 227-417 227-261 0-411-218-416-227-9-12-9-29 0-41 6-9 156-227 416-227 262 0 411 218 417 227 8 12 8 28 0 41z m-417-196c-178 0-299 124-340 175 42 51 162 175 340 175 178 0 299-124 340-175-41-51-162-175-340-175z m21 327c-41 5-80-5-113-30l0 0c-67-51-80-146-30-214 24-33 61-54 100-60 8-1 14-1 22-1 33 0 65 11 91 31 67 51 80 146 30 214-24 32-59 53-100 60z m37-230c-21-15-46-22-71-19-25 4-48 18-64 39-32 43-23 104 19 136 21 15 46 22 71 19 26-4 49-18 64-38 33-44 24-105-19-137z m-3 133c7-7 11-17 11-26 0-10-4-19-11-27-7-6-16-11-26-11-10 0-19 5-27 11-6 7-11 17-11 27 0 9 5 18 11 26 7 6 17 11 27 11 10 0 19-5 26-11z" horiz-adv-x="1000" />

<glyph glyph-name="facebook-circle" unicode="&#xe861;" d="M500 790c-235 0-423-193-423-423s188-424 423-424 423 188 423 424-188 423-423 423z m156-228c0-6-6-14-14-14h-54c-40 0-46-14-46-43v-60h95c4 0 7 0 11-4 4-3 4-6 4-11v-103c0-7-7-14-15-14h-95v-260c0-6-7-14-14-14h-107c-7 0-14 7-14 14v260h-82c-6 0-14 6-14 14v103c0 7 7 15 14 15h82v71c0 92 60 156 149 156h81c7 0 15-7 15-14v-96h4z" horiz-adv-x="1000" />

<glyph glyph-name="facebook-square" unicode="&#xe862;" d="M77 790v-846h845v846h-845z m590-216c0-6-7-14-14-14h-53c-38 0-46-14-46-43v-60h96c3 0 6 0 10-4 4-3 4-6 4-11v-102c0-6-7-14-14-14h-96v-258c0-7-7-15-14-15h-107c-7 0-14 7-14 15v258h-82c-6 0-14 6-14 14v103c0 7 7 15 14 15h82v70c0 92 60 156 148 156h81c7 0 15-6 15-14v-96h4z" horiz-adv-x="1000" />

<glyph glyph-name="facebook" unicode="&#xe863;" d="M710 790h-110c-124 0-202-82-202-207v-96h-110c-11 0-18-6-18-17v-139c0-11 7-17 18-17h110v-352c0-11 6-18 17-18h142c11 0 18 7 18 18v352h127c11 0 18 6 18 17v139c0 3-3 11-3 11-4 3-7 3-11 3h-128v81c0 40 11 61 61 61h74c11 0 18 6 18 17v129c-3 11-10 18-21 18z" horiz-adv-x="1000" />

<glyph glyph-name="file-raw" unicode="&#xe864;" d="M788 790h-577c-21 0-38-18-38-39v-769c0-21 17-39 38-39h577c21 0 38 18 38 39v769c0 21-17 39-38 39z m-38-770h-500v693h500v-693z m-374 308h254c21 0 38 18 38 39s-17 38-38 38h-254c-21 0-39-18-39-38s18-39 39-39z m0 182h254c21 0 38 18 38 39 0 21-17 38-38 38h-254c-21 0-39-17-39-38 0-21 18-39 39-39z m88-273l-39-113-19 37c-2 2-3 3-4 4-1 2-3 3-4 4 3 1 6 3 9 5s4 5 6 8c2 3 4 5 5 10 1 3 1 6 1 11 0 5-1 10-2 14-2 4-5 8-8 11-3 3-8 6-13 8s-12 2-20 2l-34 0 0-117 24 0 0 43 7 0c2 0 3 0 4-1 1-1 2-2 2-3l18-34c2-3 4-6 9-6l18 0 0 0 19 0c2 0 3 1 5 3 2 1 3 2 4 4l6 21 40 0 6-21c2-2 3-3 4-4 1-2 3-2 5-2l19 0-41 117-27-1z m-71-45c-1-2-2-5-3-6-1-2-3-3-5-4-3-1-6-1-9-1l-10 0 0 35 10 0c6 0 11-1 14-4 3-4 5-7 5-12 0-3-2-6-2-8z m70-28l10 32c1 2 1 5 2 8 1 3 1 5 2 9 1-4 1-7 2-9 1-3 1-6 2-8l10-32-28 0z m185 71c-1-1-2-3-2-5l-14-61c0-2-1-5-1-6 0-2-1-4-1-6-1 4-2 8-4 13l-16 61c-1 3-2 4-3 5-1 1-4 1-6 1l-8 0c-2 0-3-1-5-2s-2-3-2-5l-17-61c-1-5-2-9-3-13 0 2-1 4-1 6 0 2-1 5-1 7l-14 61c0 2-2 4-4 5-1 1-3 1-5 1l-20 0 33-117 22 0 20 73c0 1 1 2 1 3 0 1 1 3 1 5 0-2 1-4 1-5 0-1 1-2 1-3l20-73 22 0 32 118-19 0c-4 0-5-1-7-2z" horiz-adv-x="1000" />

<glyph glyph-name="file" unicode="&#xe865;" d="M815 564l-213 215c-7 7-16 11-27 11h-364c-21 0-38-18-38-39v-769c0-21 17-39 38-39h577c21 0 38 18 38 39v555c0 10-4 20-11 27z m-65-44h-193v193h2l191-193z m-500-500v693h230v-230c0-21 17-40 38-40h232v-423h-500z" horiz-adv-x="1000" />

<glyph glyph-name="files" unicode="&#xe866;" d="M506 572c-7 7-15 8-24 8h-274c-18 0-42-11-42-29v-582c0-18 24-42 42-42h436c18 0 29 24 29 42v420c0 8-2 15-8 21l-159 162z m91-186h-119v119l119-119z m-358-387v516h174v-158c0-18 17-34 35-34h159v-322h-368z m602 608l-161 161c-5 5-11 5-18 5h-275c-16 0-29-8-29-23v-89c0-15 12-27 28-27 15 0 27 12 27 27v57h194v-156c0-15 13-28 28-28h156v-341h-38c-16 0-28-12-28-28 0-15 12-27 28-27h70c16 0 23 13 23 29v420c0 8-1 15-5 20z m-179 101l118-119h-118v119z" horiz-adv-x="1000" />

<glyph glyph-name="filter" unicode="&#xe867;" d="M920 752c-8 13-20 21-34 21h-772c-14 0-26-8-34-21-6-12-3-27 5-39l300-440v-291c0-30 21-55 50-55h130c30 0 50 24 50 55v291l300 441c8 11 11 26 5 38z m-373-446c-4-6-8-14-8-22v-280h-77v280c0 8-5 16-9 22l-91 134c18 6 42 11 67 11 29 0 49-5 71-11 23-5 46-12 78-12 20 0 36 1 52 3l-83-125z m141 206c0 0 0 0 0 0-1 0-41-19-108-18-24 0-41 4-62 10-23 6-51 13-88 13-43 0-83-11-108-21l-135 200h626l-125-184z m-79 63c-7 7-11 17-11 28 0 10 4 20 11 27 6 7 17 11 27 11 10 0 20-4 28-11 6-7 11-17 11-27 0-10-5-20-11-28-8-6-18-11-28-11s-21 4-27 11z" horiz-adv-x="1000" />

<glyph glyph-name="flag" unicode="&#xe868;" d="M875 789c-18 3-34-6-42-22-10-25-108-125-191-129-47-2-92 31-140 66-59 44-127 94-214 78-126-24-187-139-189-144-4-8-6-17-3-25l37-164 0 0 108-477c4-18 18-29 36-29 2 0 5 0 8 1 19 5 32 25 27 44l-62 280c16 25 63 89 137 105 44 10 79-1 120-15 45-16 96-32 162-18 139 32 233 197 235 412 0 18-12 33-29 37z m-222-377c-46-11-82 1-123 15-45 15-96 32-160 18-62-15-110-51-141-85l-4 16-54 240c16 24 59 80 132 94 55 11 103-24 156-64 53-40 114-84 186-81 62 3 125 39 175 80-22-111-77-213-167-233z" horiz-adv-x="1000" />

<glyph glyph-name="folder-open" unicode="&#xe869;" d="M915 481c-6 9-17 14-28 14h-46v100c0 18-13 29-31 29h-322l-42 68c-5 10-16 15-27 15h-238c-17 0-31-10-31-27v-184h-37c-11 0-22-5-28-14s-10-20-8-31l68-422c3-16 19-28 36-28h628c16 0 32 12 36 27l77 422c2 10 0 22-7 31z m-700 161h186l42-68c5-10 16-15 27-15h306v-65h-561v148z m566-569h-570l-52 350h681l-59-350z" horiz-adv-x="1000" />

<glyph glyph-name="folder" unicode="&#xe86a;" d="M868 597h-379l-48 78c-8 14-22 21-38 21h-282c-24 0-44-20-44-44v-615c0-24 20-44 44-44h747c24 0 44 20 44 44v515c0 24-20 45-44 45z m-44-516h-659v527h213l48-78c8-13 22-21 38-21h360v-428z" horiz-adv-x="1000" />

<glyph glyph-name="forward" unicode="&#xe86b;" d="M89 81c0-20 14-38 34-43 3-1 7-1 11-1 16 0 30 9 37 22 76 134 283 143 371 141v-119c0-18 13-34 29-41 17-6 38-3 50 10l270 275c17 17 17 45 0 61l-270 275c-12 13-33 17-50 10-16-7-29-23-29-41v-117c-132-8-246-52-327-132-126-125-126-294-126-300z m118 135c43 97 143 210 379 210 24 0 42 20 42 44v53l164-167-164-167v52c0 22-16 41-38 44-11 1-228 23-383-69z" horiz-adv-x="1000" />

<glyph glyph-name="gear" unicode="&#xe86c;" d="M500 173c-98 0-177 79-177 177 0 98 79 177 177 177 98 0 177-79 177-177 0-98-79-177-177-177z m0 289c-61 0-112-50-112-112 0-61 51-112 112-112 62 0 112 51 112 112 0 62-50 112-112 112z m0-535h-5c-32 0-61 3-62 3-14 2-26 13-29 28l-8 66c-20 6-40 14-59 25l-51-39c-12-8-28-8-40 0-1 2-23 18-46 41l-2 3c-23 24-40 46-41 47-9 12-9 27 0 39l41 53c-10 19-18 38-24 58l-65 9c-14 2-27 13-28 29-1 1-4 29-4 61v6c0 31 3 60 3 61 2 14 13 26 28 29l66 8c6 20 14 40 24 59l-38 51c-8 12-8 28 0 40 2 1 18 23 41 46l3 3c24 23 46 40 47 41 12 9 27 9 39 0l53-41c19 10 38 18 58 25l9 64c2 15 13 27 29 28 1 0 29 3 61 3h6c31 0 60-3 61-3 14-2 26-13 29-28l8-66c20-6 40-14 59-24l52 40c13 9 28 9 40 0 1-1 23-18 46-41l3-3c24-23 40-45 41-46 9-12 9-28 0-40l-41-53c10-18 18-38 25-58l64-9c15-2 27-13 28-28 0-1 3-30 3-62v-7c0-32-3-61-3-62-2-14-13-26-28-29l-65-8c-7-20-15-40-25-59l40-51c9-12 9-28 0-40-1-1-18-23-41-46l-6-2c-23-23-45-40-46-41-13-9-28-9-40 0l-53 41c-18-10-38-18-58-24l-9-65c-2-15-13-27-28-28-2-1-30-4-62-4z m-33 66c9 0 19-1 29-1h5c10 0 20 0 29 1l9 60c2 14 12 25 25 28 28 6 56 17 81 33 8 4 17 5 24 3 5-1 9-3 13-7l49-36c6 6 13 12 21 20l3 3c8 8 14 15 20 21l-39 49c-7 11-8 25-1 37 16 24 27 50 34 78 2 14 13 25 28 26l61 9c0 9 1 19 1 29v5c0 10 0 20-1 29l-60 9c-13 2-24 12-28 25-6 28-17 55-31 80-2 2-3 4-4 7-3 9-2 22 5 30l37 50c-6 6-12 13-20 21l-3 3c-8 8-14 14-21 20l-49-39c-13-8-28-8-39 0-24 16-50 27-78 33-13 4-23 15-24 28l-10 60c-9 0-19 1-29 1h-5c-10 0-20 0-29-1l-8-60c-3-15-14-26-28-28-27-6-54-17-78-32-8-4-16-5-25-3-5 1-9 3-13 7l-49 36c-6-6-13-12-21-20l-3-3c-8-8-14-14-20-21l37-49c7-11 8-26 2-37-1-1-1-2-2-3-16-24-27-51-33-78-4-13-15-23-28-24l-58-9c0-9-1-19-1-29v-5c0-10 0-20 1-29l60-8c15-3 26-14 28-28 0 0 0-1 0-1 6-27 17-53 32-77 5-8 6-17 3-27-1-5-3-8-7-11l-36-49c6-6 12-13 20-21l3-3c8-8 14-14 21-20l50 37c12 8 29 8 40-2 24-14 50-25 77-31 13-4 23-15 24-28l9-58z" horiz-adv-x="1000" />

<glyph glyph-name="gift" unicode="&#xe86d;" d="M678 631c7 12 10 28 10 48 0 61-49 111-111 111-30 0-58-12-77-32-20 21-47 32-77 32-61 0-111-50-111-111 0-17 6-32 11-48h-198c-13 0-23-11-23-23v-118c0-14 11-23 23-23h29v-501c0-13 11-23 23-23h645c13 0 23 11 23 23v501h30c13 0 23 11 23 23v118c0 13-11 23-23 23h-197z m-302 49c0 28 19 46 46 46 13 0 26-6 35-16 41-45-21-106-66-65-10 8-15 22-15 35z m201 46c14 0 27-7 36-18 37-44-22-102-66-66-11 9-17 22-17 37 0 27 21 47 47 47z m258-154v-42h-670v42h670z m-617-305v200h248v-200h-248z m0-260v200h248v-200h-248z m315 260v200h248v-200h-248z m0-260v200h248v-200h-248z" horiz-adv-x="1000" />

<glyph glyph-name="globe" unicode="&#xe86e;" d="M500 773c-233 0-423-190-423-423s190-423 423-423 423 190 423 423-190 423-423 423z m34-771c-2 0-6 0-6 0v199c46 0 91 2 130 4-35-107-100-178-124-203z m-68 0c-24 24-89 96-124 203 39-2 84-4 131-4v-199c0 0-5 0-7 0z m-315 348c0 23 2 46 6 68 20 3 60 10 113 16-4-27-6-54-6-84 0-29 2-57 6-83-53 5-92 11-113 14-4 23-6 46-6 69z m168 0c0 31 3 60 9 88 42 3 90 5 145 5v-186c-55 1-103 3-145 5-6 28-9 57-9 88z m214 348c24-25 89-97 124-203-38 2-83 5-129 5v198c0 0 4 0 5 0z m-60 0v-198c-47 0-92-3-130-5 35 106 99 178 124 203 1 0 6 0 6 0z m55-441v186c54-1 102-3 145-5 5-28 8-57 8-88 0-31-3-60-8-88-42-3-91-5-145-5z m202 177c54-6 93-11 113-15 4-22 7-45 7-68 0-23-3-46-7-68-20-3-59-10-113-14 4 26 6 54 6 83 0 27-2 55-6 82z m95 44c-26 4-62 8-108 13-22 79-61 143-94 187 92-36 166-109 202-200z m-448 200c-33-44-70-108-93-187-47-5-84-9-109-13 36 91 110 164 202 200z m-202-455c26-5 62-9 109-14 22-79 59-142 92-186-92 36-166 108-201 200z m450-199c33 44 71 106 93 185 46 5 82 9 108 14-36-92-109-164-201-199z" horiz-adv-x="1000" />

<glyph glyph-name="google-plus-circle" unicode="&#xe86f;" d="M498 790c-233 0-421-188-421-421s188-421 421-421 424 188 424 421-191 421-424 421z m92-432c-8-109-95-195-205-195-114 0-206 93-206 209 0 113 96 206 209 206 53 0 102-21 137-57 7-6 7-14 0-20l-35-36c-3-3-14-3-17 0-21 21-53 32-85 32-70 0-131-60-128-134 4-67 61-124 128-124 56 0 102 35 120 85h-99c-7 0-14 6-14 14v49c0 7 6 15 14 15h188c-7 2-7-44-7-44z m219-24h-50v-50c0-6-6-11-11-11h-42c-7 0-11 7-11 11v50h-50c-6 0-11 6-11 11v42c0 7 7 11 11 11h50v50c0 6 6 11 11 11h42c7 0 11-7 11-11v-50h50c6 0 11-6 11-11v-42c3-5-5-11-11-11z" horiz-adv-x="1000" />

<glyph glyph-name="google-plus-square" unicode="&#xe870;" d="M77 790v-846h845v846h-845z m513-432c-8-109-95-195-205-195-114 0-206 93-206 209 0 113 96 206 209 206 53 0 102-21 137-57 7-6 7-14 0-20l-35-36c-3-3-14-3-17 0-21 21-53 32-85 32-70 0-131-60-128-134 4-67 61-124 128-124 56 0 102 35 120 85h-99c-7 0-14 6-14 14v49c0 7 6 15 14 15h188c-7 2-7-44-7-44z m233-13c0-7-6-11-11-11h-49v-50c0-6-7-11-11-11h-43c-7 0-11 7-11 11v50h-50c-6 0-11 6-11 11v42c0 7 7 11 11 11h50v50c0 6 6 11 11 11h38c7 0 11-7 11-11v-50h50c6 0 11-6 11-11v-42h4z" horiz-adv-x="1000" />

<glyph glyph-name="google-plus" unicode="&#xe871;" d="M374 310h130c-24-67-84-113-158-113-88 0-161 71-166 162-3 95 74 176 170 176 41 0 84-18 113-42 6-7 17-7 24 0l49 46c7 7 7 18 0 24-46 46-108 74-179 74-153 1-280-119-280-270s120-272 271-272c144 0 261 113 272 254 0 3 0 64 0 64h-243c-11 0-18-7-18-18v-67c-3-11 4-18 15-18z m468 95v67c0 7-7 18-18 18h-56c-6 0-17-7-17-18v-64h-64c-7 0-18-6-18-17v-56c0-7 7-18 18-18h64v-64c0-6 6-17 17-17h56c7 0 18 6 18 17v64h64c6 0 17 7 17 18v56c0 6-6 17-17 17l-64-3 0 0z" horiz-adv-x="1000" />

<glyph glyph-name="google" unicode="&#xe872;" d="M513 589c39 0 74-11 106-29l35-24c11-7 28-7 38 3l103 102c6 7 11 15 11 24s-7 18-15 21l-59 43c0 0-3 0-3 3l-56 29c0 0 0 0-4 0-54 18-106 28-159 28-109 0-215-42-296-120s-123-187-126-299c0-117 42-222 120-303 78-79 190-124 306-124s222 47 296 124c56 59 91 143 102 236v3 85 3l-3 29c-3 14-14 24-32 24h-356c-18 0-32-15-32-32v-120c0-17 14-32 32-32h182c-6-17-21-38-38-56-35-38-91-64-148-64-60 0-117 25-155 64-85 85-82 233 3 317 36 39 92 65 148 65z" horiz-adv-x="1000" />

<glyph glyph-name="head-phone" unicode="&#xe873;" d="M899 375l-1-235c0-21-17-36-38-36 0 0 0 0 0 0-20 0-37 15-37 36l1 235c0 86-33 167-94 229-62 61-143 96-230 96 0 0 0 0-1 0-179 0-324-144-325-322l-1-237c0-21-17-37-38-37 0 0 0 0 0 0-21 0-37 16-37 37l1 237c1 217 180 395 400 395 0 0 1 0 1 0 107 0 207-42 282-117 75-75 117-174 117-281z m-488-19c7-7 10-14 10-22l-1-376c0-18-14-31-33-31 0 0 0 0 0 0-122 0-163 71-167 110 0 1 0 0 0 2l0 212c0 1 0 2 0 3 4 39 45 110 167 110 0 0 0 0 1 0 9 0 16-2 23-8z m-56-58c-58-8-69-42-70-50l0-207c1-7 12-40 70-50l0 307z m424-47l0-211c0-1 0-1 0-3-4-39-45-110-167-110 0 0 0 0 0 0-17 0-33 12-33 31l-1 374c0 9 3 17 10 24 7 6 14 8 23 8 0 0 0 0 1 0 122 0 163-71 167-110 0-2 0-2 0-3z m-65-210l0 207c-2 8-12 41-70 50l1-307c58 10 68 43 69 50z" horiz-adv-x="1000" />

<glyph glyph-name="heart-filled" unicode="&#xe874;" d="M901 580c-41 90-125 147-216 147-92 0-151-40-185-84-35 43-93 84-185 84-91 0-175-58-216-147-42-94-24-197 48-278 173-194 326-331 327-332 7-7 16-10 26-10s19 3 26 10c2 1 154 138 327 332 71 80 90 184 48 278z" horiz-adv-x="1000" />

<glyph glyph-name="heart" unicode="&#xe875;" d="M901 580c-41 90-125 147-216 147-92 0-151-40-185-84-35 43-93 84-185 84-91 0-175-58-216-147-42-94-24-197 48-278 173-194 326-331 327-332 7-7 16-10 26-10 10 0 19 3 26 10 2 1 154 138 327 332 71 80 90 184 48 278z m-108-226c-127-142-243-254-293-301-50 48-166 159-293 301-52 59-65 129-36 194 28 60 85 101 144 101 118 0 144-88 148-98 4-17 19-30 37-30 0 0 0 0 0 0 18 0 34 13 39 30 2 10 28 98 147 98 59 0 117-41 144-101 28-66 15-136-37-194z" horiz-adv-x="1000" />

<glyph glyph-name="help" unicode="&#xe876;" d="M637 539c29-33 43-79 38-125-11-88-75-120-133-120-2 0-6 0-6 0v-22c0-20-16-36-36-36s-36 16-36 36v29c0 30 13 66 78 66 35 0 55 18 59 54 1 13 2 44-19 69-17 19-46 29-84 29-84 0-86-54-86-60 0-20-16-36-36-36-20 0-36 16-36 36 0 37 28 134 159 134 74 0 116-30 138-54z m-139-336c-12 0-24-6-33-13-9-9-13-21-13-33 0-12 4-25 13-33 9-9 21-14 33-14 12 0 24 6 33 14 9 8 13 21 13 33 0 12-4 24-13 33-9 7-21 13-33 13z m425 147c0-233-190-423-423-423s-423 190-423 423 190 423 423 423 423-190 423-423z m-73 0c0 192-158 350-350 350s-349-158-349-350 157-349 349-349 350 157 350 349z" horiz-adv-x="1000" />

<glyph glyph-name="home" unicode="&#xe877;" d="M887 323c-9 0-19 3-25 11l-362 351-360-351c-15-16-39-15-52 0-14 14-14 37 1 51l386 377c14 14 37 14 51 0l386-377c14-14 14-37 1-51-7-8-17-11-26-11z m-81-360v361c0 19-17 36-37 36-19 0-36-17-36-36v-323h-115v196c0 28-22 49-49 49h-137c-26 0-48-22-48-49v-196h-116v323c0 19-16 36-36 36-20 0-36-17-36-36v-360c0-20 16-36 36-36h189c20 0 36 16 36 36v209h87v-209c0-20 16-36 36-36h189c20-1 37 15 37 35z" horiz-adv-x="1000" />

<glyph glyph-name="horn" unicode="&#xe878;" d="M919 474c-8 28-26 50-50 62-32 16-68 14-93 10l-54 189c-3 13-14 23-27 25-14 3-27-1-36-11-131-146-186-182-330-246l-115-33c-100-29-158-134-129-235 14-50 46-90 91-115 28-15 59-24 91-24 15 0 30 2 45 6l12-43c7-23 19-43 36-60l19-17c7-7 17-10 25-10 10 0 20 4 27 11 14 14 13 38-1 52l-19 17c-8 7-13 17-15 27l-12 42 52 16c153 23 221 21 408-32 3-1 7-1 10-1 10 0 19 3 26 11 10 10 13 23 10 36l-54 189c24 9 56 27 75 56 12 23 15 50 8 78z m-708-289c-27 16-47 40-56 71-18 61 18 127 79 145l83 24 38-133 26-91-82-25c-30-9-60-6-88 9z m375 40c-41 0-83-4-132-11l-54 188-13 46c117 54 180 94 282 202l131-458c-88 24-150 33-214 33z m260 209c-5-10-20-18-32-24l-18 64c14 2 29 1 39-3 5-2 10-7 12-17 4-11 1-16-1-20z m-233 61c10-14 8-34-7-45-35-24-73-45-74-45-4-2-10-3-14-3-12 0-23 6-29 17-8 16-2 35 13 43 0 0 37 19 66 41 14 10 35 6 45-8z" horiz-adv-x="1000" />

<glyph glyph-name="hourglass" unicode="&#xe879;" d="M808 4h-39v101c0 56-56 103-110 148-18 16-44 40-53 51v92c9 11 35 34 53 51 54 45 110 92 110 148v101h39c21 0 38 18 38 39s-17 38-38 38h-616c-21 0-38-17-38-38s17-39 38-39h39v-101c0-56 56-103 110-148 18-16 44-40 54-51v-92c-10-11-36-34-54-51-54-45-110-92-110-148v-101h-39c-21 0-38-18-38-39 0-21 17-38 38-38h616c21 0 38 17 38 38 0 21-17 39-38 39z m-500 101c0 21 54 66 82 90 46 40 81 68 81 105v101c0 36-34 64-81 104-28 24-82 70-82 90v101h384v-101c0-21-53-66-82-90-46-40-81-68-81-104v-101c0-37 34-65 81-105 29-24 82-69 82-90v-101h-384v101z m279 504v20c0 19 15 34 34 34 19 0 34-15 34-34v-20c0-18-15-34-34-34-20 1-34 16-34 34z" horiz-adv-x="1000" />

<glyph glyph-name="house" unicode="&#xe87a;" d="M445 280c0 17-14 32-32 32h-120c-17 0-31-15-31-32v-120c0-18 14-32 31-32h120c18 0 32 14 32 32v120z m-120-33h55v-55h-55c0 0 0 55 0 55z m587 309l-81 82v96c0 19-17 36-38 36h-586c-20 0-38-17-38-36v-96l-81-82c-7-7-11-16-11-26v-93c0-20 16-34 36-34h772c19 0 36 13 36 34v93c1 10-2 19-9 26z m-155 141v-46h-514v46c0 0 514 0 514 0z m93-221h-699v39l75 71h548l76-71v-39z m17-147v-330c0-19-16-36-36-36h-127c-19 0-36 14-36 35v195h-86v-194c0-19-17-36-37-36h-375c-19 0-37 17-37 36v330c0 20 17 36 36 36s37-16 37-36v-293h303v196c0 20 15 33 36 33h159c20 0 35-13 35-33v-196h54v293c0 20 17 36 37 36 21 0 37-16 37-36z" horiz-adv-x="1000" />

<glyph glyph-name="image-o" unicode="&#xe87b;" d="M922 651c0 20-16 36-36 36h-772c-19 0-36-16-36-36v-569c0-20 17-36 36-36h772c20 0 36 16 36 36v569z m-72-36v-308l-62 52c-13 11-33 11-47 0l-99-83-231 200c-13 13-33 13-47 2l-213-173v310h699z m-294-125c0 37 31 67 68 67s68-30 68-67-30-67-68-67c-37 0-68 29-68 67z" horiz-adv-x="1000" />

<glyph glyph-name="image" unicode="&#xe87c;" d="M922 651c0 20-16 36-36 36h-772c-19 0-36-16-36-36v-569c0-20 17-36 36-36h772c20 0 36 16 36 36v569z m-72-36v-308l-62 52c-13 11-33 11-47 0l-99-83-231 200c-13 13-33 13-47 2l-213-173v310h699z m-699-497v91l235 191 231-200c13-13 34-13 47 0l99 82 85-72v-92h-697z m405 372c0 37 31 67 68 67s68-30 68-67-30-67-68-67c-37 0-68 29-68 67z" horiz-adv-x="1000" />

<glyph glyph-name="images-o" unicode="&#xe87d;" d="M921 561l-88-422c-2-13-14-22-27-22-3 0-4 0-6 1-15 3-24 18-22 33l82 395-527 106-13-58c-3-15-18-24-33-21-16 3-24 18-21 33l19 86c3 14 17 24 33 21l582-118c8-1 13-5 18-12 4-8 5-14 3-22z m-171-503c0-21-17-38-38-38h-598c-21 0-37 17-37 38v451c0 21 16 38 37 38h599c21 0 38-17 38-38v-451h-1z m-599 414v-226l156 126c12 10 32 10 44-1l174-155 74 63c12 10 25 10 37 0l31-31v224h-516z m362-149c31 0 57 25 57 56s-25 56-57 56c-31 0-57-26-57-56 1-31 26-56 57-56z" horiz-adv-x="1000" />

<glyph glyph-name="images" unicode="&#xe87e;" d="M921 561l-88-422c-2-13-14-22-27-22-3 0-4 0-6 1-15 3-24 18-22 33l82 395-527 106-13-58c-3-15-18-24-33-21-16 3-24 18-21 33l19 86c3 14 17 24 33 21l582-118c8-1 13-5 18-12 4-8 5-14 3-22z m-171-503c0-21-17-38-38-38h-598c-21 0-37 17-37 38v451c0 21 16 38 37 38h599c21 0 38-17 38-38v-451h-1z m-599 414v-226l156 126c12 10 32 10 44-1l174-155 74 63c12 10 25 10 37 0l31-31v224h-516z m515-377v67l-51 48-69-62c-12-10-29-10-42 0l-179 156-174-143v-67h515v1z m-153 228c31 0 57 25 57 56s-25 56-57 56c-31 0-57-26-57-56 1-31 26-56 57-56z" horiz-adv-x="1000" />

<glyph glyph-name="inbox" unicode="&#xe87f;" d="M922 429c0 1 0 2 0 5 0 1 0 2-1 3 0 1-1 2-1 3s-1 2-1 3-1 3-1 4c-1 1-1 2-3 3 0 0 0 1-1 1l-197 242c-7 9-18 13-29 13h-376c-11 0-22-5-28-13l-198-242-1-1c-1-1-1-2-3-3s-1-2-1-4-1-2-1-3-1-2-1-3 0-2-1-3c0-2 0-3 0-5v-1-328c0-40 33-73 74-73h699c40 0 73 33 73 73v328c-2 0-2 1-2 1z m-592 203h340l138-164h-122c-11 0-21-7-28-15l-83-95h-150l-83 95c-7 8-17 15-28 15h-122l138 164z m520-531h-698v293h146l80-91c10-11 23-19 37-19h171c14 0 27 8 37 19l80 91h147c0 0 0-293 0-293z" horiz-adv-x="1000" />

<glyph glyph-name="info" unicode="&#xe880;" d="M475 94c-8 0-15 2-20 7-9 7-13 19-11 30l45 230-25-14c-16-9-35-4-44 12-9 15-3 35 12 44l86 48c11 7 24 6 35-2 10-8 15-20 13-32l-47-238 38 16c17 7 35 0 43-16 7-17 0-36-16-43l-95-42c-5 1-10 0-14 0z m92 440c9 8 13 20 13 33 0 12-4 24-13 33-9 8-21 13-33 13-12 0-24-5-33-13-9-9-13-21-13-33 0-13 4-25 13-33 9-9 20-14 33-14 12 0 24 5 33 14z m356-184c0 233-190 423-423 423s-423-190-423-423 190-423 423-423 423 190 423 423z m-73 0c0-192-158-349-350-349s-349 157-349 349 157 350 349 350 350-158 350-350z" horiz-adv-x="1000" />

<glyph glyph-name="joystick" unicode="&#xe881;" d="M636 493c8-8 12-19 12-30 0-11-4-22-12-29-7-8-18-13-29-13-11 0-22 5-30 13-8 7-12 18-12 29s4 22 12 30c8 8 19 12 30 12 11 0 22-4 29-12z m65-58c-11 0-22-5-30-12-7-8-12-19-12-30 0-11 5-22 12-30 8-7 19-12 30-12 11 0 22 5 30 12 8 8 12 19 12 30 0 11-4 22-12 30-9 7-19 12-30 12z m-313 21h-26v24c0 13-10 23-23 23-14 0-24-10-24-23v-24h-23c-13 0-23-10-23-24 0-13 10-23 23-23h23v-24c0-13 10-23 24-23 13 0 23 10 23 23v24h26c13 0 23 10 23 23 0 14-10 24-23 24z m535-286c0-40-22-72-57-85-35-13-90-7-140 50-24 27-64 77-86 104-118-27-231-10-278 0-22-27-63-78-87-105-35-41-75-55-107-55-12 0-24 2-34 5-35 13-57 46-57 86 0 109 70 279 92 330-7 25-4 51 10 75 18 30 50 53 76 55 23 2 56-12 77-22 42 8 171 27 337 0 21 10 54 24 78 22 28-2 60-25 76-55 14-24 18-50 10-75 20-51 90-222 90-330z m-73 0c0 110-91 311-92 313-4 10-4 22 1 32 4 8 5 13 1 21-4 11-15 18-19 21-8-1-31-10-49-20-7-5-15-6-24-3-188 33-333 1-334 0-9-3-17-2-25 3-18 9-40 17-49 20-4-3-15-11-19-21-4-7-2-13 1-21 5-10 5-22 1-32-1-2-91-203-91-313 0-9 3-14 10-17 12-4 35 3 59 29 32 36 99 120 99 121 9 12 24 16 39 12 1 0 145-41 286 0 3 1 7 1 10 1 11 0 22-6 29-14 1-1 67-85 98-121 24-27 47-34 60-29 4 4 8 9 8 18z" horiz-adv-x="1000" />

<glyph glyph-name="key" unicode="&#xe882;" d="M832 704c-55 55-129 86-206 86-161 0-292-131-292-292 0-31 6-63 16-93l-257-256c-6-7-11-15-11-25v-144c0-20 17-37 37-37h118c10 0 19 4 26 11l39 40c7 7 11 15 11 25v33h33c20 0 36 17 36 37v3h4c20 0 36 16 36 36v28h28c9 0 18 3 25 11l57 57c30-10 61-16 93-16 161 0 292 131 292 292 0 76-30 149-85 204z m-677-596l263 263c10 11 13 26 7 39-12 28-18 58-18 88 0 121 99 220 219 220 121 0 220-99 220-220 0-120-99-219-220-219-30 0-60 6-87 18-14 6-29 4-40-6l-64-64h-48c-20 0-36-17-36-36v-28h-4c-19 0-36-16-36-36v-2h-33c-20 0-36-17-36-36v-54l-19-20h-68v93z m556 561c-43 0-78-35-78-78s35-78 78-78 78 35 78 78-35 78-78 78z m0-115c-20 0-36 17-36 37s16 36 36 36 36-17 36-36c0-20-16-37-36-37z" horiz-adv-x="1000" />

<glyph glyph-name="life-ring" unicode="&#xe883;" d="M799 649c-79 80-186 124-299 124 0 0 0 0 0 0-113 0-220-44-299-124-80-79-124-186-124-299s44-220 124-299c79-80 186-124 299-124 113 0 220 44 299 124 80 79 124 186 124 299 0 113-44 220-124 299z m-84-247l127 19c4-23 8-47 8-71 0-24-3-48-8-71l-127 19c9 34 9 70 0 104z m111 72l-129-20c-10 19-23 38-40 53-16 17-34 29-53 40l20 131c45-18 87-44 122-80 36-36 63-78 80-124z m-326-272c-40 0-77 15-105 44-29 28-44 66-44 105s15 77 44 106c28 28 67 44 105 44 39 0 76-15 106-44 28-29 44-66 44-106 0-39-16-77-44-105-29-29-66-44-106-44z m0 498c24 0 48-3 71-8l-19-127c-34 8-70 8-104 0l-19 127c23 5 47 8 71 8z m-247-103c35 35 77 63 122 79l21-129c-19-10-38-23-53-40-15-15-29-34-40-53l-130 20c18 46 45 88 80 123z m-102-247c0 24 2 48 7 71l127-19c-5-17-6-34-6-52 0-18 2-35 6-52l-127-19c-5 23-7 47-7 71z m23-124l129 20c10-19 23-38 40-53 15-15 34-29 53-40l-20-130c-45 17-87 44-122 79-36 36-63 78-80 124z m326-225c-24 0-48 2-71 7l19 127c17-5 34-6 52-6h0c18 0 35 2 52 6l19-127c-23-5-47-7-71-7z m247 102c-35-35-77-63-122-79l-21 129c19 10 38 23 53 40 17 16 29 34 40 53l131-20c-19-46-46-88-81-123z" horiz-adv-x="1000" />

<glyph glyph-name="link-broken" unicode="&#xe884;" d="M419 349c0-20-17-36-37-36l-57-1c-8 0-17 2-24 8l-213 215c-7 6-11 16-11 26s4 19 11 26l192 192c15 14 38 14 52 0l214-215c14-14 14-37 0-51-14-15-37-15-51 0l-189 189-140-140 178-177h38c20 1 37-15 37-36z m492-149l-213 215c-7 6-16 9-24 9l-57-1c-20 0-37-17-37-37s17-36 37-36h38l178-177-141-139-189 189c-14 14-37 14-51 0s-15-38 0-52l214-214c8-8 16-11 26-11s19 3 27 11l192 192c7 7 11 16 11 26-1 9-4 18-11 25z m-275 381c20 0 37 16 37 36v92c0 20-17 37-37 37s-36-17-36-37v-92c0-20 17-36 36-36z m108-112h92c20 0 37 16 37 36s-17 37-37 37h-92c-20 0-36-16-36-36s15-37 36-37z m-382-310c-20 0-37-17-37-36v-93c0-20 17-36 37-36s36 16 36 36v93c0 20-17 36-36 36z m-114 108h-92c-20 0-36-17-36-37s16-36 36-36h92c20 0 37 16 37 36 1 20-16 37-37 37z" horiz-adv-x="1000" />

<glyph glyph-name="link" unicode="&#xe885;" d="M911 204l-219 217c-14 15-37 15-51 0l-72-71-87 87 72 71c14 15 14 38 0 52l-219 219c-14 14-37 14-51 0l-196-196c-7-7-11-16-11-26s4-19 11-27l219-218c7-8 16-11 26-11s19 3 26 11l72 71 87-87-72-71c-14-15-14-38 0-52l219-219c6-6 16-11 26-11s19 5 27 11l195 196c12 15 12 39-2 54z m-579 187l-166 167 144 144 167-167-46-46-28 27c-14 14-37 14-51 0s-15-37 0-52l27-27-47-46z m357-357l-166 167 46 46 28-28c7-7 16-11 26-11s19 4 27 11c14 15 14 38 0 52l-28 27 46 47 167-167-146-144z" horiz-adv-x="1000" />

<glyph glyph-name="linkedin-circle" unicode="&#xe886;" d="M533 410l0 0c0 0-3 0 0 0l0 0z m-35 382c-233 0-421-188-421-421s188-421 421-421 424 188 424 421-191 421-424 421z m-134-665h-110v329h110v-329z m-57 375l0 0c-39 0-61 25-61 56s25 56 64 56 60-25 60-56-24-56-63-56z m449-375h-110v177c0 46-14 75-56 75-32 0-49-21-56-39-3-6-3-17-3-28v-184h-110c0 0 0 297 0 329h110v-47c14 21 38 53 99 53 70 0 127-46 127-148-1 0-1-188-1-188z" horiz-adv-x="1000" />

<glyph glyph-name="linkedin-square" unicode="&#xe887;" d="M77 790v-846h845v846h-845z m287-665h-110v328h110v-328z m-57 375l0 0c-39 0-61 25-61 56 0 31 25 56 64 56s60-26 60-56-24-56-63-56z m449-375h-110v177c0 46-14 74-56 74-32 0-49-20-56-38-3-7-3-18-3-29v-184h-110c0 0 0 296 0 328h110v-46c14 21 38 53 99 53 70 0 127-46 127-148-1 1-1-187-1-187z m-223 283l0 0c0 0-3 0 0 0l0 0z" horiz-adv-x="1000" />

<glyph glyph-name="linkedin" unicode="&#xe888;" d="M922 275v-313h-179v292c0 74-24 124-91 124-50 0-82-36-92-68-3-10-6-28-6-46v-302h-180c0 0 3 492 0 545h179v-77l0 0 0 0 0 0c24 39 67 91 161 91 117 0 208-78 208-246z m-742 496c-59 0-102-42-102-95s39-94 99-94l0 0c64 0 102 42 102 94 2 53-36 95-99 95z m-92-809h179v545h-179v-545z" horiz-adv-x="1000" />

<glyph glyph-name="list-multi" unicode="&#xe889;" d="M400 656c0 26 22 48 48 48h426c26 0 48-22 48-48s-22-49-48-49h-426c-27 0-48 21-48 49z m474-263h-426c-26 0-48-22-48-48s22-49 48-49h426c26 0 48 22 48 49s-22 48-48 48z m0-311h-426c-26 0-48-22-48-48s22-49 48-49h426c26 0 48 22 48 49s-22 48-48 48z m-584 646c0 19-15 34-34 34h-145c-19 0-34-15-34-34v-146c0-19 15-34 34-34h146c19 0 34 15 34 34v146z m0-456c0-19-15-34-34-34h-145c-19 0-34 15-34 34v145c0 19 15 34 34 34h146c19 0 34-15 34-34v-145z m-58 111h-88v-78h88v78z m58-422c0-19-15-34-34-34h-145c-19 0-34 15-34 34v145c0 19 15 34 34 34h146c19 0 34-15 34-34v-145z m-58 112h-88v-88h88v88z" horiz-adv-x="1000" />

<glyph glyph-name="list-o" unicode="&#xe88a;" d="M923 641c0-31-25-56-56-56h-512c-31 0-56 25-56 56s25 56 56 56h512c31 0 56-25 56-56z m-568-344h291c31 0 56 26 56 56s-25 56-56 56h-291c-31 0-56-25-56-56s24-56 56-56z m411-177h-411c-31 0-56-25-56-56s25-56 56-56h411c31 0 56 26 56 56s-25 56-56 56z m-629 582c-16 0-31-7-42-18-11-11-18-26-18-43 0-15 7-32 18-43 11-11 27-17 42-17 17 0 32 6 43 17 11 11 18 27 18 43 0 16-7 32-18 43-11 11-27 18-43 18z m0-288c-16 0-31-7-42-18-11-11-18-26-18-43s7-32 18-43c11-10 27-17 42-17 17 0 32 7 43 17 11 11 18 27 18 43s-7 32-18 43c-11 11-27 18-43 18z m0-289c-16 0-31-7-42-18-11-11-18-26-18-43s7-32 18-43c11-11 27-17 42-17 17 0 32 6 43 17 11 11 18 27 18 43s-7 32-18 43c-11 11-27 18-43 18z" horiz-adv-x="1000" />

<glyph glyph-name="list" unicode="&#xe88b;" d="M301 651c0 27 21 47 47 47h528c26 0 47-20 47-47s-21-47-47-47h-528c-26 0-47 22-47 47z m575-256h-528c-26 0-47-21-47-47s21-47 47-47h528c26 0 47 20 47 47s-21 47-47 47z m0-304h-528c-26 0-47-21-47-48 0-26 21-47 47-47h528c26 0 47 21 47 47 0 27-21 48-47 48z m-733 319c-36 0-66-29-66-67 0-37 30-67 66-67 36 0 66 30 66 67 1 37-29 67-66 67z m0 308c-36 0-66-29-66-67 0-37 30-67 66-67 36 0 66 30 66 67 1 38-29 67-66 67z m0-606c-36 0-66-30-66-67 0-38 30-68 66-68 36 0 66 30 66 68 1 36-29 67-66 67z" horiz-adv-x="1000" />

<glyph glyph-name="location" unicode="&#xe88c;" d="M706 697c-53 48-126 73-206 73s-153-25-205-73c-64-57-97-143-97-248 0-230 265-500 276-511 6-7 16-11 26-11s19 4 26 11c11 11 276 281 276 511 0 105-33 191-96 248z m-206-680c-25 28-64 74-103 129-83 116-127 222-127 303 1 230 176 247 230 247 212 0 229-189 229-247 0-162-164-359-229-432z m0 595c-80 0-146-66-146-149s66-148 146-148c80 0 146 66 146 148s-66 149-146 149z m0-232c-45 0-81 37-81 83s36 84 81 84c45 0 81-38 81-84s-36-83-81-83z" horiz-adv-x="1000" />

<glyph glyph-name="lock-open" unicode="&#xe88d;" d="M747 489h-404v64c0 97 60 161 149 161 65 0 115-33 137-91 7-20 29-30 48-22 20 7 30 28 22 48-33 88-111 141-208 141-131 0-224-97-224-237v-64h-28c-21 0-38-17-38-38v-470c0-21 17-38 38-38h508c21 0 38 17 38 38v470c1 21-17 38-38 38z m-37-471h-432v396h433l-1-396 0 0z" horiz-adv-x="1000" />

<glyph glyph-name="lock" unicode="&#xe88e;" d="M746 489h-28v64c0 139-95 237-226 237s-225-97-225-237v-64h-28c-21 0-38-17-38-38v-469c0-21 17-38 38-38h507c21 0 38 17 38 38v469c0 21-17 38-38 38z m-403 64c0 97 63 161 150 161s151-65 151-161v-64h-301v64z m366-534h-432v395h432v-395z" horiz-adv-x="1000" />

<glyph glyph-name="map" unicode="&#xe88f;" d="M907 629l-195 91c-1 0-1 0-1 1-1 0-2 2-3 2-1 0-2 1-4 1-1 0-2 0-4 0-1 0-2 0-4 0-1 0-3 0-5-1-1 0-2-2-4-2-1 0-1 0-2-1l-182-84-181 84c-1 0-1 0-2 1-1 0-2 2-5 2-1 0-2 1-4 1-1 0-2 0-4 0-1 0-3 0-5 0-1 0-2 0-4-1-1 0-2-2-5-2-1 0-1 0-2-1l-198-91c-11-5-20-16-20-29v-598c0-11 7-22 17-28 6-3 12-5 19-5 4 0 10 1 14 3l181 85 182-85c0 0 0 0 0 0 2-1 4-1 5-2 0 0 1 0 1 0 3 0 5-1 7-1 2 0 4 0 7 1 0 0 1 0 1 0 2 0 4 1 5 2 0 0 0 0 0 0l181 85 182-85c4-2 9-3 14-3 7 0 10 2 15 5 10 6 14 17 14 28v598c5 12 0 24-11 29z m-443-577l-120 62v525l120-60v-527z m-322 527l128 60v-525l-128-61v526z m394 0l129 60v-525l-129-61v526z m322-527l-128 62v525l128-60v-527z" horiz-adv-x="1000" />

<glyph glyph-name="medical-kit" unicode="&#xe890;" d="M912 562c-6 7-16 9-26 9h-193v110c0 20-18 36-38 36h-310c-20 0-38-16-38-36v-110h-194c-20 0-36-12-36-33v-520c0-20 16-36 36-36h773c20 0 36 16 36 36l0 519c1 10-3 19-10 25z m-532 83h240v-74h-240v74z m470-589h-699v441h699l0-441z m-499 225c0 17 14 32 31 32h81v81c0 18 14 32 32 32 17 0 31-14 31-32v-81h91c17 0 31-15 31-32 0-18-14-32-31-32h-89v-87c0-17-15-32-32-32-18 0-32 15-32 32v87h-80c-19 0-33 14-33 32z" horiz-adv-x="1000" />

<glyph glyph-name="menu" unicode="&#xe891;" d="M423 641c0 20 9 41 23 55s34 22 54 22c20 0 40-9 55-22 14-14 22-34 22-55 0-20-9-39-22-54-14-14-34-23-55-23-20 0-40 9-54 23-14 15-23 34-23 54z m23-328c14-15 34-23 54-23 20 0 40 8 55 23 14 14 22 34 22 54 0 19-9 40-22 54-14 15-34 22-55 22-20 0-40-8-54-22-14-14-23-34-23-54 0-20 9-40 23-54z m0-275c14-14 34-23 54-23 20 0 40 9 55 23 14 14 22 34 22 54s-9 40-22 55c-14 14-34 22-55 22-20 0-40-9-54-22-14-15-23-34-23-55 0-20 9-40 23-54z" horiz-adv-x="1000" />

<glyph glyph-name="message" unicode="&#xe892;" d="M923 605c0 1 0 2 0 4 0 1 0 3 0 4 0 1-1 2-1 3 0 1-1 2-1 3 0 1-1 2-1 4-1 1-1 2-2 3 0 0 0 0 0 1 0 1-1 1-3 2-1 1-2 2-2 3-1 2-2 2-3 3-1 1-2 1-3 2-1 1-3 1-4 2-1 0-2 1-3 1-1 0-2 1-3 1-1 0-2 1-4 1-1 0-2 0-4 0-1 0-1 0-2 0h-774c-1 0-1 0-2 0-1 0-2 0-4 0-1 0-3 0-4-1-1 0-2-1-3-1-1 0-2-1-3-1-1 0-2-1-4-2-1-1-2-1-3-2-1-1-2-1-3-3 1-2 0-3-1-4 0-1-1-1-2-2 0 0 0 0 0-1-2-1-2-2-3-4 0-1-1-2-1-3 0-1-1-2-1-3 0-1-1-2-1-3 0-2 0-3 0-4 0-1 0-2 0-4 0 0 0 0 0-1v-511c0-20 17-36 36-36h773c20 0 36 16 36 36l0 513c0 0 0 0 0 0z m-148-37l-275-282-275 282h550z m-624-438v401l327-319c7-5 14-8 22-8 8 0 15 2 22 8l328 319v-401h-699z" horiz-adv-x="1000" />

<glyph glyph-name="mic" unicode="&#xe893;" d="M689-39c0-21-16-37-37-37h-338c-21 0-37 16-37 37s16 37 37 37h137l0 63c0 18 15 32 33 32 18 0 33-14 33-32l0-63h135c21-1 37-17 37-37z m-8 544c0 0 0 0 0 0-18 0-33-14-33-32l0-239c0-15-5-27-15-37-9-10-22-14-34-14 0 0 0 0 0 0l-231 0c-13 0-25 6-34 14-10 10-14 23-14 37l0 239c0 18-14 32-33 32 0 0 0 0 0 0-19 0-33-14-33-32l0-239c0-31 12-60 33-82 22-22 50-34 81-34l231 0c0 0 0 0 0 0 31 0 60 12 81 34 22 22 33 51 33 82l0 239c1 18-13 32-32 32z m-297-252c-14 16-21 34-21 53l0 386c0 18 7 37 21 54 15 17 35 27 55 27 0 0 0 0 0 0h90c41 0 74-44 74-81l0-385c0-37-34-79-74-79 0 0 0 0 0 0l-90-2c-20 1-40 10-55 27z m55 53c0-2 2-5 4-8l80 0c2 3 5 6 5 8l0 385c0 2-3 5-5 7l-80 0c-2-2-4-5-4-7l0-385z" horiz-adv-x="1000" />

<glyph glyph-name="minus" unicode="&#xe894;" d="M160 306c-13 0-26 6-35 14-8 9-14 21-14 36 0 27 22 49 49 49l669 0c27 0 49-22 49-49 0-28-22-50-49-50l-669 0z" horiz-adv-x="1000" />

<glyph glyph-name="mobile" unicode="&#xe895;" d="M669 790h-338c-39 0-71-31-71-71v-706c0-39 31-71 71-71h338c39 0 71 31 71 71v706c0 40-32 71-71 71z m-169-817c-15 0-27 12-27 28s12 27 27 27 28-12 28-27-13-28-28-28z m166 81h-332v662h331l1-662 0 0z" horiz-adv-x="1000" />

<glyph glyph-name="moniter" unicode="&#xe896;" d="M922 725c0 20-16 36-36 36h-772c-21 0-37-16-37-36v-588c0-20 16-36 36-36h772c19 0 36 16 36 36l1 588 0 0z m-72-551h-699v513h697v-513h2z m-135-166c0-20-16-36-36-36h-358c-20 0-36 16-36 36s16 37 36 37h357c21 1 37-16 37-37z" horiz-adv-x="1000" />

<glyph glyph-name="move" unicode="&#xe897;" d="M923 348c0-10-4-19-11-27l-130-129c-7-7-16-11-26-11-10 0-19 4-26 11-15 14-15 38 0 53l67 68h-261v-262l67 67c15 14 39 14 53 0 14-14 14-37 0-51l-130-129c-7-7-16-11-26-11-10 0-19 3-26 11l-130 129c-14 14-14 37 0 51 14 14 37 14 52 0l67-67v263h-260l67-68c15-15 15-39 0-54-7-8-16-11-26-11-10 0-19 3-26 11l-130 129c-7 7-11 17-11 27 0 10 4 20 11 26l130 130c14 14 37 14 51 0 15-14 15-37 0-52l-67-65h261v261l-67-67c-15-14-38-14-52 0-14 14-14 37 0 51l131 130c14 14 37 14 51 0l130-130c14-14 14-37 0-51-8-8-16-11-26-11-10 0-19 3-27 11l-67 67v-262h261l-67 65c-15 14-15 36 0 51 14 14 37 14 51 0l131-129c7-6 11-16 11-25z" horiz-adv-x="1000" />

<glyph glyph-name="nav" unicode="&#xe898;" d="M852 597h-704c-39 0-71 32-71 72s32 71 71 71h704c39 0 71-32 71-71s-32-72-71-72z m71-247c0 40-32 71-71 71h-704c-39 0-71-31-71-71 0-40 32-71 71-71h704c39 0 71 31 71 71z m0-319c0 40-32 72-71 72h-704c-39 0-71-32-71-72s32-71 71-71h704c39 0 71 32 71 71z" horiz-adv-x="1000" />

<glyph glyph-name="navigate-circle" unicode="&#xe899;" d="M711 580c-14 10-26 12-40 7l-461-214c-12-4-20-16-20-33 0-13 10-24 28-30l191-32 22-180c0-13 11-23 27-29l1 0h6c15 0 25 6 30 20l223 449 1 1c5 15 3 29-6 37l-2 4z m-61-57l-176-373-18 146c0 13-11 24-28 30l-148 22 370 175z m-150 267c-234 0-423-189-423-423 0-236 189-427 423-427s422 189 422 423c0 235-189 427-422 427z m352-423c0-197-160-357-356-357-198 0-353 157-353 357 0 194 159 352 356 352 194 0 353-158 353-352z" horiz-adv-x="1000" />

<glyph glyph-name="navigate" unicode="&#xe89a;" d="M539-73c-3 0-5 0-7 0-18 3-32 17-34 35l-35 351-351 35c-19 2-33 15-35 34-3 18 7 36 23 43l766 345c15 6 33 3 45-9 12-12 15-30 9-45l-344-765c-7-15-21-24-37-24z m-268 487l233-24c19-3 35-17 37-37l24-233 237 532-531-238z" horiz-adv-x="1000" />

<glyph glyph-name="network-c" unicode="&#xe89b;" d="M432 691c0 55-44 99-98 99s-103-45-103-99c0-42 27-77 56-93v-461c-28-16-55-51-55-92 0-55 47-99 101-99s99 45 99 99c0 41-24 76-62 92v461c37 16 62 51 62 93z m-97 43c23 0 42-20 42-43s-19-43-42-43-42 20-42 43 19 43 42 43z m0-732c-23 0-42 19-42 43 0 24 19 42 42 42s42-19 42-42c0-24-19-43-42-43z m378 135v461c28 16 55 51 55 93 0 55-47 99-101 99s-99-45-99-99c0-42 24-77 62-93v-461c-38-16-63-51-63-92 0-55 44-99 98-99s103 45 103 99c0 41-27 76-55 92z m-49 597c23 0 42-20 42-43s-19-43-42-43-42 20-42 43 19 43 42 43z m0-732c-23 0-42 19-42 43 0 24 19 42 42 42s42-19 42-42c1-24-19-43-42-43z" horiz-adv-x="1000" />

<glyph glyph-name="network-d" unicode="&#xe89c;" d="M600 690c0 55-44 99-98 99s-103-46-103-99c0-42 27-77 56-93v-461c-27-16-55-51-55-93 0-55 47-99 101-99s99 46 99 99c0 42-24 77-61 93v461c36 16 61 51 61 93z m-97 42c23 0 42-19 42-42s-19-43-42-43-41 20-41 43 18 42 41 42z m0-731c-23 0-41 19-41 42 0 25 18 43 41 43s42-19 42-43-19-42-42-42z" horiz-adv-x="1000" />

<glyph glyph-name="network" unicode="&#xe89d;" d="M848 135v203c0 57-40 104-97 104h-214v154 1c37 16 63 51 63 93 0 55-45 100-100 100s-100-45-100-100c0-42 26-77 63-93v-1-155h-213c-58 0-98-46-98-104v-203c-38-16-65-51-65-93 0-55 43-100 99-100 55 0 102 45 102 100 0 42-32 77-60 93v204c0 15 7 29 23 29h212v-232c-38-16-63-51-63-93 0-55 45-100 100-100s100 45 100 100c0 42-24 77-63 93v232h213c15 0 23-14 23-29v-203c-29-16-60-51-60-93 0-55 46-100 101-100s98 45 98 100c0 42-26 77-64 93z m-348 599c24 0 43-20 43-43 0-24-20-43-43-43-24 0-43 20-43 43-1 23 19 43 43 43z m-316-735c-25 0-43 20-43 43 0 25 19 43 43 43 24 0 42-20 42-43 0-24-18-43-42-43z m316 0c-24 0-43 20-43 43 0 25 20 43 43 43 24 0 43-20 43-43 0-24-19-43-43-43z m317 0c-25 0-43 20-43 43 0 25 19 43 43 43 24 0 42-20 42-43 0-24-19-43-42-43z" horiz-adv-x="1000" />

<glyph glyph-name="netwrok-a" unicode="&#xe89e;" d="M681 143c-41 0-78-31-92-59h-205c-17 0-26 9-26 24v210h231c15-37 51-61 92-61 55 0 100 45 100 100s-45 99-100 99c-41 0-78-26-92-63h-231v203l-2 1c36 15 62 51 62 93 0 55-45 100-101 100-55 0-100-45-100-100 0-42 27-78 63-93l1-1v-489c0-57 44-99 101-99h205c15-37 50-65 92-65 55 0 100 45 100 100 2 55-43 100-98 100z m0 258c25 0 44-20 44-43 0-24-19-43-44-43-24 0-44 20-44 43s20 43 44 43z m-363 333c24 0 44-20 44-43 0-24-20-43-44-43s-44 20-44 43c0 23 19 43 44 43z m363-736c-24 0-44 20-44 43s20 43 44 43c25 0 44-20 44-43s-19-43-44-43z" horiz-adv-x="1000" />

<glyph glyph-name="netwrok-b" unicode="&#xe89f;" d="M790 690c0 55-45 100-100 100s-100-45-100-100c0-42 27-77 63-93-1-16-11-122-158-176-69-25-118-57-147-91v268c38 16 61 51 61 93 0 55-46 100-101 100s-99-45-99-100c0-42 26-77 64-93v-462c-38-16-65-51-65-93 0-55 44-100 99-100s101 45 101 100c0 42-23 77-61 93v29c0 11 5 126 173 187 199 73 209 228 209 246 37 15 61 51 61 92z m-483 44c24 0 44-20 44-43 0-24-20-43-44-43s-44 20-44 43 19 43 44 43z m0-733c-25 0-44 19-44 42 0 25 19 43 44 43s44-19 44-43c-1-24-20-42-44-42z m383 646c-24 0-44 20-44 43 0 24 20 42 44 42s44-19 44-42-20-43-44-43z" horiz-adv-x="1000" />

<glyph glyph-name="news" unicode="&#xe8a0;" d="M656 553h-210c-18 0-33-15-33-33 0-18 16-33 33-33h210c19 0 33 16 33 33 0 19-15 33-33 33z m80-161h-290c-18 0-33-16-33-33 0-19 16-33 33-33h290c19 0 33 15 33 33 0 19-15 33-33 33z m152 371h-592c-19 0-33-15-33-33v-315h-60c-70 0-126-57-126-126v-186c0-69 56-127 126-127 6 0 11 0 17 1h551c83 0 150 68 150 150v603c0 19-15 33-33 33z m-626-660c0-29-21-53-48-58h-11v-2c-33 0-59 27-59 60v186c0 32 26 59 59 59h60l-1-245 0 0z m592 24c0-45-37-82-83-82h-457c9 17 15 37 15 58v593h525v-569l0 0z m-198 113h-210c-18 0-33-15-33-33 0-18 16-33 33-33h210c19 0 33 16 33 33 0 19-15 33-33 33z" horiz-adv-x="1000" />

<glyph glyph-name="off" unicode="&#xe8a1;" d="M500 337c-23 0-41 19-41 41v354c0 24 19 41 41 41s41-19 41-41v-354c1-22-18-41-41-41z m390-14c0 150-83 284-217 351-20 10-45 2-55-18-10-20-3-46 18-55 106-53 172-160 172-278 0-172-139-310-308-310-170 0-308 139-308 310 0 118 66 225 172 278 20 9 28 35 18 55-9 19-35 28-54 18-136-66-218-201-218-351 0-217 175-393 390-393 215 0 390 177 390 393z" horiz-adv-x="1000" />

<glyph glyph-name="options" unicode="&#xe8a2;" d="M848 340v-360c0-20-16-37-36-37s-36 17-36 37v360c0 20 16 36 36 36s36-15 36-36z m-37 344c20 0 36 17 36 36v33c0 20-16 37-36 37s-36-17-36-37v-32c0-20 16-37 36-37z m-516-317c0-62-50-111-110-111s-110 49-110 111 49 111 110 111 110-50 110-111z m-73 0c0 20-16 37-36 37s-36-17-36-37 16-38 36-38 36 17 36 38z m387-182c0-61-50-111-110-111s-110 50-110 111 50 111 110 111 110-49 110-111z m-74 0c0 21-16 38-36 38s-36-17-36-38 16-37 36-37c20 1 36 17 36 37z m387 341c0-62-49-111-110-111s-110 49-110 111 50 111 110 111c61 0 110-50 110-111z m-74 0c0 21-16 37-36 37s-36-16-36-37 16-37 36-37 36 17 36 37z m-349-488c-20 0-36-17-36-36v-21c0-20 16-37 36-37s36 17 36 37v21c0 19-16 36-36 36z m0 303c20 0 36 17 36 37v375c0 20-16 37-36 37-21 0-37-17-37-37v-374c0-21 16-38 37-38z m-313-134c-20 0-36-16-36-36v-190c0-20 16-37 36-37s36 17 36 37v190c1 20-15 36-36 36z m0 317c20 0 36 16 36 36v193c0 20-16 37-36 37s-36-17-36-37v-192c0-21 16-37 36-37z" horiz-adv-x="1000" />

<glyph glyph-name="pamplate" unicode="&#xe8a3;" d="M855 762c-10 7-21 7-31 2l-204-95-206 95c-1 0-1 0-2 1-1 0-2 2-4 2-1 0-2 1-5 1-1 0-3 0-4 0-1 0-3 0-4 0-2 0-3 0-5-1-1 0-3-2-4-2-1 0-1 0-2-1l-219-102c-12-5-22-17-22-31v-671c0-12 9-22 17-29 6-3 14-5 20-5 5 0 10 1 16 3l205 96 206-96c0 0 0 0 0 0 2-1 4-1 6-2 0 0 1 0 1 0 3 0 5-1 7-1 2 0 4 0 7 1 0 0 1 0 1 0 2 0 4 1 6 2 0 0 0 0 0 0l217 102c12 6 17 18 17 31v672c-1 12-4 23-14 28z m-267-748l-155 70v597l155-71v-596z m-377 595l155 71v-597l-155-70v596z m589-525l-145-70v595l145 71v-596z" horiz-adv-x="1000" />

<glyph glyph-name="paper-clip" unicode="&#xe8a4;" d="M1611-13c76 0 139 63 139 140 0 77-62 140-139 140-76 0-138-63-138-140 0-77 62-140 138-140z m259-230c-33 33-108 70-171 92l-69-59c-11-9-28-9-38 0l-69 59c-63-22-137-58-171-92m522-3c-1 1-3 1-3 3m-992 680c13-13 13-33 0-46l-370-370c-62-61-132-94-198-94-16 0-34 2-49 6-65 18-116 69-133 136-22 83 7 174 82 250l412 412c67 67 161 47 214-7 73-74 53-160 4-209l-416-417c-55-55-116-50-149-18-32 32-36 93 20 148l281 281c13 14 33 14 46 0 13-13 13-33 0-46l-281-281c-24-24-29-47-20-56 9-10 33-6 57 19l416 415c41 42 24 89-4 118-31 30-82 47-122 7l-412-412c-58-58-82-126-66-187 12-45 44-78 87-89 57-15 123 10 185 72l370 369c13 12 34 12 46-1l0 0z" horiz-adv-x="1000" />

<glyph glyph-name="pill" unicode="&#xe8a5;" d="M857 724c-43 43-99 66-159 66s-117-23-159-66l-396-395c-43-43-66-99-66-159s23-117 66-160 99-66 159-66 117 24 160 66l395 394c43 43 66 99 66 159s-23 118-66 161z m-449-660c-29-28-66-44-106-44s-77 16-105 44-44 66-44 106 15 77 44 105l160 161c44-29 153-108 211-210l-160-162z m394 395l-183-185c-62 100-160 175-211 209l185 186c29 28 66 44 106 44s77-16 105-44l0 0c29-29 44-66 44-106-2-39-17-77-46-104z m-192 113c13-13 13-34 0-47l-46-46c-7-7-16-10-24-10s-18 3-25 10c-13 13-13 34 0 47l47 46c14 13 35 13 48 0z m78 77c7-7 11-17 11-28 0-9-4-19-11-27-7-7-18-11-28-11s-19 4-27 11c-7 8-11 18-11 27s4 20 11 28c8 8 18 11 27 11s20-3 28-11z" horiz-adv-x="1000" />

<glyph glyph-name="pin" unicode="&#xe8a6;" d="M912 530l-232 232c-14 14-37 14-51 0-4-3-71-71-44-161l-106-106c-57 18-206 47-315-61-14-15-14-38 0-52l157-158-233-234c-14-15-14-38 0-52 8-8 16-11 26-11s19 3 27 11l233 233 158-158c8-8 16-11 26-11 10 0 19 3 27 11 110 110 79 258 61 315l106 106c90-26 158 41 161 44 13 14 13 38-1 52z m-155-21c-14 7-31 4-42-7l-138-138c-11-11-13-26-8-39 0 0 17-42 20-96 3-53-9-99-34-136l-156 156c0 0 0 0 0 0 0 0 0 0 0 0l-156 156c99 67 225 16 231 14 14-5 29-2 39 8l139 138c11 11 14 28 7 42-13 28-7 53 0 72l170-170c-19-7-44-13-72 0z m-218-199c1-3 13-28 12-58 0-17-15-31-32-31 0 0-1 0-1 0-18 0-32 16-31 33 0 13-5 26-7 30-6 17 0 35 17 43 16 7 35 0 42-17z" horiz-adv-x="1000" />

<glyph glyph-name="pinterest-circle" unicode="&#xe8a7;" d="M500 790c-233 0-423-190-423-423s190-424 423-424 422 192 422 424c0 236-190 423-422 423z m193-497c-35-46-87-74-148-74-32 0-64 15-81 32-7-24-18-67-21-77-3-15-39-134-80-124-35 11-15 131-11 148 6 29 38 166 46 191-3 6-11 28-11 56 0 56 35 102 77 102 35 0 59-24 59-64 0-21-6-49-17-81-4-18-11-32-15-50-3-14 0-28 7-38 11-11 21-18 38-18 35 0 60 29 74 50 18 35 29 77 29 126 0 77-53 126-138 126-105 0-166-81-166-161 0-24 7-46 21-64 7-11 11-14 7-28 0-7-7-21-7-29-3-11-11-18-21-18-3 0-6 0-11 4-49 21-81 73-81 144 0 56 24 113 67 155 35 35 96 77 197 77 67 0 126-25 172-68 46-35 67-92 67-145 4-59-14-126-53-172z" horiz-adv-x="1000" />

<glyph glyph-name="pinterest-square" unicode="&#xe8a8;" d="M77 790v-846h845v846h-845z m619-499c-36-46-88-75-149-75-32 0-63 14-81 32-7-25-18-67-21-78-3-14-38-134-81-124-35 11-14 130-11 148 6 29 38 166 46 191-3 7-11 29-11 56 0 56 35 102 78 102 35 0 60-25 60-63 0-21-6-50-17-82-3-17-11-31-14-49-4-14 0-29 6-39 11-10 21-17 39-17 35 0 60 28 74 49 18 36 29 78 29 128 0 78-53 127-137 127-107 0-166-81-166-162 0-26 6-46 20-64 7-11 11-14 7-29 0-6-7-21-7-28-3-11-10-18-20-18-4 0-7 0-11 4-50 20-82 74-82 145 0 56 26 113 67 156 36 35 96 78 198 78 67 0 128-26 174-67 43-39 64-96 64-149 3-59-16-126-54-172z" horiz-adv-x="1000" />

<glyph glyph-name="pinterest" unicode="&#xe8a9;" d="M745 704c-57 57-139 86-228 86-136 0-218-58-264-104-57-57-89-132-89-210 0-96 39-168 106-195 4-3 11-3 15-3 14 0 25 11 28 25 4 6 7 28 11 39 4 18 0 26-11 40-16 19-27 47-27 83 0 104 78 215 221 215 114 0 185-64 185-168 0-64-14-126-39-172-18-32-50-68-97-68-21 0-39 7-49 25-11 15-15 32-11 50 3 21 11 43 17 63 11 40 26 79 26 107 0 50-32 86-79 86-60 0-106-61-106-135 0-40 11-64 14-75-6-32-54-221-60-253-4-21-35-186 14-196 54-14 103 143 107 164 3 15 17 72 25 104 25-26 68-43 111-43 78 0 146 35 195 100 47 60 75 146 75 243 0 68-33 138-90 192z" horiz-adv-x="1000" />

<glyph glyph-name="plus" unicode="&#xe8aa;" d="M544 21c0-27-22-49-49-49-14 0-27 5-36 14-8 9-14 21-14 35l0 285-285 0c-13 0-26 6-35 14-8 9-14 21-14 36 0 27 22 49 49 49l285 0 0 285c0 27 22 49 50 49 27 0 49-22 49-49l0-285 285 0c27 0 49-22 49-49 0-28-22-50-49-50l-285 0 0-285z" horiz-adv-x="1000" />

<glyph glyph-name="print" unicode="&#xe8ab;" d="M887 624h-185v110c0 15-7 27-23 27h-358c-15 0-23-12-23-27v-110h-185c-20 0-36-16-36-35v-422c0-20 16-39 36-39h135l-22-143c-1-9 2-21 8-27 7-7 16-14 24-14h484c10 0 18 7 24 14 7 6 9 16 8 26l-22 144h135c20 0 36 19 36 39v422c0 19-16 35-36 35z m-534 83h294v-82h-294v82z m-57-699l35 230h338l35-230h-408z m554 193h-109l-12 74c-3 16-16 27-32 27h-394c-15 0-29-11-32-27l-12-74h-108v350h699v-350z m-605 258c0 15 12 27 28 27h86c16 0 28-12 28-27s-12-28-28-28h-86c-15 0-28 12-28 28z" horiz-adv-x="1000" />

<glyph glyph-name="pulse" unicode="&#xe8ac;" d="M922 265c0-19-16-36-36-36h-174c-15 0-30 9-35 23l-27 77-90-303c-4-16-18-27-35-27h-1c-16 0-31 13-35 29l-118 513-71-285c-4-17-19-27-35-27h-152c-20 0-36 17-36 36s16 37 36 37h121l103 405c5 17 19 27 37 27 16 0 32-13 35-29l122-525 82 279c5 15 19 26 34 26 16 0 31-9 35-24l58-160h146c20 1 36-16 36-36z" horiz-adv-x="1000" />

<glyph glyph-name="reload" unicode="&#xe8ad;" d="M911 387l-138-141c-8-8-18-12-29-12s-21 4-29 12l-139 141c-16 16-16 42 0 58 15 15 42 15 57 0l78-80c-10 147-130 263-276 263-153 0-277-126-277-282s124-283 277-283c56 0 110 17 156 50 19 13 43 8 56-10 13-19 9-43-10-56-59-43-129-65-203-65-197 0-357 163-357 363s160 362 357 362c186 0 339-144 356-328l64 64c15 16 41 17 57 0 15-15 17-40 0-56z" horiz-adv-x="1000" />

<glyph glyph-name="repeat" unicode="&#xe8ae;" d="M857 495v-436c0-24-20-44-44-44h-637c-24 0-44 20-44 44v436c0 24 20 47 44 47h244l-60 59c-17 17-16 44 0 60 18 18 46 17 63 0l134-135c17-18 17-45 0-62l-134-135c-9-9-20-13-31-13-11 0-22 4-30 13-18 18-18 46 0 63l59 61h-201v-351h549v352h-92c-24 0-44 20-44 44s20 44 44 44h136c24 0 44-23 44-47z" horiz-adv-x="1000" />

<glyph glyph-name="reply-all" unicode="&#xe8af;" d="M819 374c-67 67-163 105-273 110v98c0 15-11 28-24 34-14 5-31 2-41-8l-227-229c-14-15-14-38 0-52l226-230c11-11 29-14 42-7 14 5 24 18 24 34v99c74 2 246-6 309-118 7-12 18-19 31-19 3 0 5 0 9 1 16 5 28 19 28 36 0 6 0 146-104 251z m-316-81c-18-1-30-18-30-36v-44l-139 139 139 141v-44c0-20 14-36 35-36 198 0 281-95 317-176-130 77-312 57-322 56z m-136-144c14-14 14-37 0-52-8-6-16-11-25-11-10 0-19 4-27 11l-227 230c-14 14-14 37 0 52l226 229c15 15 38 15 52 0 14-14 14-37 0-51l-200-205 201-203z" horiz-adv-x="1000" />

<glyph glyph-name="reply" unicode="&#xe8b0;" d="M777 381c-80 80-195 124-326 132v117c0 18-14 34-30 41-17 7-36 3-50-10l-270-275c-16-17-17-45 0-61l270-275c13-13 33-16 50-10 16 7 30 23 30 41v119c88 2 294-7 370-141 8-14 22-22 37-22 4 0 7 0 11 1 20 5 34 22 34 43-1 6-1 175-126 300z m-377-96c-22-2-37-21-37-44v-52l-165 167 165 167v-53c0-24 17-44 41-44 237 0 337-113 380-210-155 92-373 70-384 69z" horiz-adv-x="1000" />

<glyph glyph-name="resize-down" unicode="&#xe8b1;" d="M393-56h-261c-30 0-54 26-54 57v261c0 31 24 56 54 56h261c30 0 54-25 54-56v-260c0-32-24-58-54-58z m-239 81h216v213h-216v-213z m-47 427l0 0c-17 0-29-12-29-28 0-9 4-17 9-21s12-9 21-9c16 0 28 12 28 29l0 0c-1 17-13 29-29 29z m0 112l0 0c-17 0-30-12-30-28 0-9 4-17 9-21s12-9 21-9c16 0 28 12 28 29l0 0c0 17-12 29-28 29z m0 114l0 0c-17 0-29-13-29-29 0-9 4-17 9-21s11-9 20-9c16 0 28 12 28 29l0 0c0 16-12 30-28 30z m0 112l0 0c-17 0-30-12-30-29 0-9 4-16 9-21 4-4 12-9 21-9 16 0 28 12 28 29l0 0c0 18-12 30-28 30z m112 0l0 0c-17 0-29-12-29-29 0-9 5-16 9-21 4-4 12-9 21-9 16 0 28 12 28 29l0 0c0 18-13 30-29 30z m113 0l0 0c-17 0-29-12-29-29 0-9 5-16 9-21 5-4 12-9 21-9 17 0 29 12 29 29l0 0c-2 18-14 30-30 30z m112 0l0 0c-16 0-29-12-29-29 0-9 5-16 9-21 5-4 12-9 21-9 17 0 29 12 29 29l0 0c-1 18-14 30-30 30z m112 0l0 0c-16 0-28-12-28-29 0-9 4-16 8-21 5-4 12-9 21-9 17 0 29 12 29 29l0 0c0 18-13 30-30 30z m112 0l0 0c-16 0-28-12-28-29 0-9 4-16 8-21 5-4 12-9 21-9 17 0 29 12 29 29l0 0c0 18-12 30-30 30z m113 0l0 0c-16 0-28-12-28-29 0-9 4-16 9-21 4-4 12-9 20-9 17 0 29 12 29 29l0 0c-1 18-13 30-30 30z m112 0l0 0c-16 0-28-12-28-29 0-9 4-16 9-21 4-4 12-9 21-9 16 0 28 12 28 29l0 0c-1 18-13 30-30 30z m0-112l0 0c-16 0-28-13-28-29 0-9 4-17 9-21s12-9 21-9c16 0 28 12 28 29l0 0c-1 16-13 30-30 30z m0-114l0 0c-16 0-28-12-28-28 0-9 4-17 9-21s12-9 21-9c16 0 28 12 28 29l0 0c-1 17-13 29-30 29z m0-112l0 0c-16 0-28-12-28-28 0-9 4-17 9-21s12-9 21-9c16 0 28 12 28 29l0 0c-1 17-13 29-30 29z m0-112l0 0c-16 0-28-12-28-28 0-9 4-17 9-21s12-9 21-9c16 0 28 12 28 28l0 0c-1 17-13 30-30 30z m0-113l0 0c-16 0-28-12-28-29 0-8 4-16 9-20 4-5 12-9 21-9 16 0 28 12 28 28l0 0c-1 18-13 30-30 30z m0-112l0 0c-16 0-28-12-28-29 0-8 4-16 9-21s12-8 21-8c16 0 28 12 28 28l0 0c-1 18-13 30-30 30z m0-112l0 0c-16 0-28-12-28-29 0-9 4-16 9-21s12-9 21-9c16 0 28 13 28 29l0 0c-1 17-13 30-30 30z m-112 0l0 0c-16 0-28-12-28-29 0-9 4-16 9-21 4-4 12-9 20-9 17 0 29 13 29 29l0 0c-1 17-13 30-30 30z m-113 0l0 0c-16 0-28-12-28-29 0-9 4-16 8-21s12-9 21-9c17 0 29 13 29 29l0 0c0 17-12 30-30 30z m-112 0l0 0c-16 0-28-12-28-29 0-9 4-16 8-21 5-4 12-9 21-9 17 0 29 13 29 29l0 0c0 17-13 30-30 30z m-88 322c-5 5-9 14-9 22l0 207c0 9 4 17 10 22 6 6 15 9 23 9 18 0 32-15 32-33l1-131 219 219c12 12 32 12 45 0 12-12 12-32 0-45l-219-219 130 2c18 0 31-14 31-30 0-18-14-32-32-32l-208 0c-9 0-16 3-23 9z" horiz-adv-x="1000" />

</font>
</defs>
</svg>
